<svg xmlns="http://www.w3.org/2000/svg" viewBox="0 0 140 136"><defs><style>.cls-1{fill:#fff;fill-rule:evenodd;}</style></defs><g id="Layer_2" data-name="Layer 2"><g id="Layer_3" data-name="Layer 3"><path class="cls-1" d="M69.78,0a69.68,69.68,0,0,0-22,135.82c3.5.64,4.76-1.53,4.76-3.34v-13c-19.43,4.18-23.48-8.23-23.48-8.23-3.17-8.06-7.75-10.22-7.75-10.22-6.34-4.31.47-4.22.47-4.22A14.67,14.67,0,0,1,32.48,104c6.22,10.66,16.35,7.59,20.34,5.86a14.62,14.62,0,0,1,4.43-9.31C41.73,98.8,25.41,92.8,25.41,66.09a26.82,26.82,0,0,1,7.22-18.68A24.89,24.89,0,0,1,33.3,29s5.87-1.87,19.2,7.15a66.33,66.33,0,0,1,35,0c13.36-9,19.2-7.15,19.2-7.15a24.89,24.89,0,0,1,.67,18.45,26.79,26.79,0,0,1,7.19,18.68c0,26.8-16.32,32.68-31.87,34.41a16.66,16.66,0,0,1,4.72,12.91v19.13c0,1.84,1.27,4,4.82,3.33A69.67,69.67,0,0,0,70.08.06Z"/></g></g></svg>