<svg xmlns="http://www.w3.org/2000/svg" viewBox="0 0 128 128"><defs><style>.cls-1{fill:#fff;}</style></defs><g id="Layer_2" data-name="Layer 2"><g id="ELEMENTS"><path class="cls-1" d="M97,22.5a7.5,7.5,0,1,0,7.5,7.5A7.5,7.5,0,0,0,97,22.5Z"/><path class="cls-1" d="M64,32.5A31.5,31.5,0,1,0,95.5,64,31.53,31.53,0,0,0,64,32.5Zm0,51.68A20.18,20.18,0,1,1,84.18,64,20.2,20.2,0,0,1,64,84.18Z"/><path class="cls-1" d="M89.55,128H38.45A38.5,38.5,0,0,1,0,89.55V38.45A38.5,38.5,0,0,1,38.45,0h51.1A38.5,38.5,0,0,1,128,38.45v51.1A38.5,38.5,0,0,1,89.55,128ZM38.45,12A26.44,26.44,0,0,0,12,38.45v51.1A26.44,26.44,0,0,0,38.45,116h51.1A26.44,26.44,0,0,0,116,89.55V38.45A26.44,26.44,0,0,0,89.55,12Z"/></g></g></svg>