<svg xmlns="http://www.w3.org/2000/svg" xmlns:xlink="http://www.w3.org/1999/xlink" viewBox="0 0 2500 1600"><defs><style>.cls-1{fill:url(#linear-gradient);}.cls-2{fill:#00d193;}.cls-3{fill:#ee5f4e;}.cls-4{fill:#fff;}.cls-5{fill:url(#linear-gradient-2);}.cls-6{fill:#0e3c4c;}.cls-7{fill:#54c9ea;}.cls-8{fill:#0a2129;}.cls-9{fill:url(#linear-gradient-3);}.cls-10{fill:url(#linear-gradient-4);}.cls-11{fill:url(#linear-gradient-5);}.cls-12{fill:#71cfe9;}.cls-13{fill:url(#linear-gradient-6);}</style><linearGradient id="linear-gradient" x1="2488.44" y1="1200" x2="1141.26" y2="1200" gradientUnits="userSpaceOnUse"><stop offset="0.01" stop-color="#3eb0ca"/><stop offset="0.99"/></linearGradient><linearGradient id="linear-gradient-2" x1="1319.68" y1="988.5" x2="1319.68" y2="1228.53" xlink:href="#linear-gradient"/><linearGradient id="linear-gradient-3" x1="0" y1="400" x2="1249.99" y2="400" xlink:href="#linear-gradient"/><linearGradient id="linear-gradient-4" x1="1083.75" y1="582.5" x2="1083.75" y2="420.49" xlink:href="#linear-gradient"/><linearGradient id="linear-gradient-5" x1="166.25" y1="228.5" x2="166.25" y2="57.75" xlink:href="#linear-gradient"/><linearGradient id="linear-gradient-6" x1="1546.56" y1="498.5" x2="1546.56" y2="328.08" xlink:href="#linear-gradient"/></defs><g id="Layer_2" data-name="Layer 2"><g id="MIDGROUND"><rect id="_316041712" data-name=" 316041712" class="cls-1" x="1249.99" y="800" width="1250" height="800"/><polygon id="_316043464" data-name=" 316043464" class="cls-2" points="2500 1600 1249.99 800 2500 800 2500 1600"/><path class="cls-3" d="M1875,878.44c-177.6,0-321.56,144-321.56,321.56s144,321.57,321.56,321.57,321.57-144,321.57-321.57S2052.6,878.44,1875,878.44Zm0,477.66A156.1,156.1,0,1,1,2031.1,1200,156.1,156.1,0,0,1,1875,1356.1Z"/><rect id="_316044064" data-name=" 316044064" class="cls-4" x="1249.99" y="919.37" width="139.38" height="561.25"/><rect id="_316044136" data-name=" 316044136" class="cls-5" x="1249.99" y="919.37" width="139.38" height="280.63"/><rect id="_316041016" data-name=" 316041016" class="cls-6" x="833.33" y="800" width="416.67" height="800"/><polygon id="_317583488" data-name=" 317583488" class="cls-2" points="1249.99 1600 833.33 1600 833.33 1408.34 1041.66 1200 1249.99 1408.34 1249.99 1600"/><polygon id="_316041352" data-name=" 316041352" class="cls-3" points="833.33 991.67 833.33 800 1249.99 800 1249.99 991.67 1041.66 1200 833.33 991.67"/><rect id="_316039984" data-name=" 316039984" class="cls-7" x="416.67" y="800" width="416.67" height="800"/><path id="_316040056" data-name=" 316040056" class="cls-8" d="M833.33,1521.57V1356.1a156.1,156.1,0,0,1,0-312.2V878.44c-177.59,0-321.56,144-321.56,321.56S655.74,1521.57,833.33,1521.57Z"/><rect id="_316035520" data-name=" 316035520" class="cls-8" y="800" width="416.67" height="800"/><polygon id="_316035712" data-name=" 316035712" class="cls-2" points="416.67 1200 0 1600 0 800 416.67 1200"/><path id="_316043200" data-name=" 316043200" class="cls-3" d="M304.37,1429.37a46.25,46.25,0,1,1-46.25,46.25A46.24,46.24,0,0,1,304.37,1429.37Z"/><path id="_316039408" data-name=" 316039408" class="cls-4" d="M304.37,878.13a46.25,46.25,0,1,1-46.25,46.24A46.24,46.24,0,0,1,304.37,878.13Z"/><rect id="_316042936" data-name=" 316042936" class="cls-9" width="1249.99" height="800"/><rect id="_316045768" data-name=" 316045768" class="cls-3" width="1249.99" height="400"/><path class="cls-4" d="M332.5,107.5v585h585v-585ZM799.38,574.38H450.62V225.62H799.38Z"/><rect id="_316043848" data-name=" 316043848" class="cls-8" x="917.5" y="282.5" width="332.5" height="57.5"/><rect id="_316042120" data-name=" 316042120" class="cls-2" x="917.5" y="225" width="332.5" height="57.5"/><rect id="_316038520" data-name=" 316038520" class="cls-8" x="917.5" y="167.5" width="332.5" height="57.5"/><rect id="_316034992" data-name=" 316034992" class="cls-8" y="575" width="332.5" height="57.5"/><rect id="_316037128" data-name=" 316037128" class="cls-2" y="517.5" width="332.5" height="57.5"/><rect id="_316037584" data-name=" 316037584" class="cls-8" y="460" width="332.5" height="57.5"/><path id="_316038232" data-name=" 316038232" class="cls-10" d="M1083.75,460A116.25,116.25,0,1,1,967.5,576.25,116.25,116.25,0,0,1,1083.75,460Z"/><path id="_316036456" data-name=" 316036456" class="cls-4" d="M1083.75,692.5A116.25,116.25,0,0,1,967.5,576.25H1200A116.25,116.25,0,0,1,1083.75,692.5Z"/><path id="_316037416" data-name=" 316037416" class="cls-11" d="M166.25,107.5A116.25,116.25,0,1,1,50,223.75,116.25,116.25,0,0,1,166.25,107.5Z"/><path id="_316045312" data-name=" 316045312" class="cls-12" d="M166.25,340A116.25,116.25,0,0,1,50,223.75H282.5A116.25,116.25,0,0,1,166.25,340Z"/><rect id="_316042696" data-name=" 316042696" class="cls-12" x="1249.99" width="593.13" height="800"/><rect id="_316037680" data-name=" 316037680" class="cls-8" x="1843.12" width="328.43" height="800"/><polygon id="_315624936" data-name=" 315624936" class="cls-2" points="1843.12 0 2171.56 0 2171.56 111.89 2007.34 276.11 1843.12 111.89 1843.12 0"/><rect id="_316046632" data-name=" 316046632" class="cls-3" x="2171.56" width="328.44" height="800"/><rect id="_315619368" data-name=" 315619368" class="cls-2" x="1843.12" y="638.61" width="328.43" height="57.5"/><rect id="_315618696" data-name=" 315618696" class="cls-4" x="1843.12" y="581.11" width="328.43" height="57.5"/><rect id="_315618720" data-name=" 315618720" class="cls-2" x="1843.12" y="523.61" width="328.43" height="57.5"/><polygon id="_315621120" data-name=" 315621120" class="cls-7" points="2171.56 0 2171.56 800 2500 800 2171.56 0"/><path id="_315621768" data-name=" 315621768" class="cls-4" d="M2248.12,689.86a28.75,28.75,0,1,1-28.75,28.75A28.75,28.75,0,0,1,2248.12,689.86Z"/><path id="_315621024" data-name=" 315621024" class="cls-4" d="M2248.12,568a28.75,28.75,0,1,1-28.75,28.75A28.75,28.75,0,0,1,2248.12,568Z"/><path id="_315621936" data-name=" 315621936" class="cls-4" d="M2248.12,446.11a28.75,28.75,0,1,1-28.75,28.75A28.75,28.75,0,0,1,2248.12,446.11Z"/><rect id="_315623256" data-name=" 315623256" class="cls-6" x="1249.99" width="593.12" height="400"/><rect id="_316046752" data-name=" 316046752" class="cls-2" x="1336.86" y="190.3" width="419.4" height="419.4" transform="translate(170.13 1210.73) rotate(-45)"/><circle id="_316045600" data-name=" 316045600" class="cls-4" cx="1546.56" cy="400" r="116.25" transform="translate(1061.65 1922.07) rotate(-86.83)"/><path id="_316039792" data-name=" 316039792" class="cls-13" d="M1546.56,516.25A116.25,116.25,0,0,1,1430.31,400h232.5A116.25,116.25,0,0,1,1546.56,516.25Z"/></g></g></svg>