<svg xmlns="http://www.w3.org/2000/svg" xmlns:xlink="http://www.w3.org/1999/xlink" viewBox="0 0 2119.7 2052.5" xmlns:v="https://vecta.io/nano"><style><![CDATA[.J{fill:#2d2d2d}.K{opacity:.24}]]></style><defs><clipPath id="A" transform="translate(537.3 289.2)"><path d="M-29 57.9h1131.7v800.4H-29z" fill="none"/></clipPath><path id="B" d="M922.3 893.6a8.64 8.64 0 0 0-12.898 11.499 8.64 8.64 0 0 0 12.198.701 8.58 8.58 0 0 0 .7-12.2z"/><path id="C" d="M1469.5 781.3a6.14 6.14 0 0 0-8.6-.5 6 6 0 0 0-.5 8.6 6.14 6.14 0 0 0 8.6.5 6 6 0 0 0 .5-8.6z"/><path id="D" d="M1064.7 804.3a6.14 6.14 0 0 0-8.6-.5 6 6 0 0 0-.5 8.6c2.237 2.513 6.087 2.737 8.6.5s2.737-6.087.5-8.6z"/><path id="E" d="M521.3 1228.8a9.65 9.65 0 0 0-11.1-8.1 9.7 9.7 0 0 0-8.1 11.2 9.65 9.65 0 0 0 11.1 8.1 9.88 9.88 0 0 0 8.1-11.2z"/><path id="F" d="M1351.6 939a9.72 9.72 0 0 0-19.188 3.118 9.72 9.72 0 0 0 11.088 8.082 9.8 9.8 0 0 0 8.1-11.2z"/><path id="G" d="M1095.2 861.9a6.89 6.89 0 0 0-12.389-2.933 6.89 6.89 0 0 0 6.689 10.833 7 7 0 0 0 5.7-7.9z"/><path id="H" d="M1295.3 922a4.91 4.91 0 0 0-8.814-2.152 4.91 4.91 0 0 0 4.714 7.752 4.88 4.88 0 0 0 4.1-5.6z"/><path id="I" d="M819.8 1125a6.89 6.89 0 0 0-12.389-2.933 6.89 6.89 0 0 0 6.689 10.833 6.91 6.91 0 0 0 5.7-7.9z"/><path id="J" d="M788 976.8l.6.3 519.9 284.7.2-.3-519.4-284.4 380.6-26.2 3.7 182.2h.3l-3.6-182.6h-.2L788 976.8z"/><path id="K" d="M643.4 1014.5l-.1-.2 145.3-37.5h0l272.9 49.2-.1.4-272.8-49.1-144.8 37.4 136.3 294.5 63.6-212.8.1-.5 146.9 294.3L1345 891.8l.2-.3 27.5 83.3 274.9 430.3.6 1-179.4-139.1h0l-96.3-292-30.8-48.2.3-.2 30 46.9-26.8-81.1-354.3 498.4-.2.3-146.7-294-63.7 212.8-.1.5zm729.8-38.2l95.8 290.4 177.6 137.6z"/><path id="L" d="M1230.4 1439.1l-60.8-110.8 140.6-68.3-78 179 32 58.3 274.8 13.3-.1 1.6-275.2-13.3h-.4l-31.8-58-48.8 111.9-1.4-.6zm-58.7-110.1l59.5 108.3 75.8-174z"/><path id="M" d="M1081.2 1620.3l181.9-120.9 43.3 238.5 1.5-.3-43.7-240.9-182.3 121.2-90-226.2 239.2 48.1.3-1.5-242-48.7 91.8 230.7z"/><path id="N" d="M487.7 823.8l-82.4-51.5 73.7 10.6-13.8-64.9 1.5-.3 13.9 65.5 234.6 33.7.4.1 128.7 278.6 217-70.2 1.4-.5-47.5 156.2 292.7 79.5 32.6-203.4 129.8 210.5-161.1-5.3v.2l-295.2-80.2-.7-.2 47-154.9-216.2 70-.7.2-128.8-279.2L481 784.7l8.1 38.1 88 55 .5.3-38.1 188.7zm1.9 1.2l49.8 234.1 36.4-180.2zm-10.2-40.5l-66.9-9.6 74.9 46.8zm862 277.1l-31.9 199.3 158 5.2z"/><path id="O" d="M1065.2 1022.6a6.79 6.79 0 0 0-11.642 4.679 6.79 6.79 0 0 0 11.542 4.921 6.88 6.88 0 0 0 .1-9.6z"/><path id="P" d="M847.9 1091.9a6.79 6.79 0 0 0-11.642 4.679 6.79 6.79 0 0 0 11.542 4.921 6.79 6.79 0 0 0 .1-9.6z"/><path id="Q" d="M719.7 812.2a6.79 6.79 0 0 0-11.642 4.679A6.79 6.79 0 0 0 719.6 821.8a6.88 6.88 0 0 0 .1-9.6z"/><path id="R" d="M581.7 873.6a6.79 6.79 0 0 0-11.642 4.679A6.79 6.79 0 0 0 581.6 883.2a6.88 6.88 0 0 0 .1-9.6z"/><path id="S" d="M1314.5 1255.9a8.41 8.41 0 0 0-11.991 11.795 8.41 8.41 0 0 0 11.891.105 8.48 8.48 0 0 0 .1-11.9z"/><path id="T" d="M1347.1 1054.2a6.79 6.79 0 0 0-11.642 4.679A6.79 6.79 0 0 0 1347 1063.8a6.88 6.88 0 0 0 .1-9.6z"/><path id="U" d="M1186.1 1547.6a6.79 6.79 0 0 0-11.642 4.679A6.79 6.79 0 0 0 1186 1557.2a6.79 6.79 0 0 0 .1-9.6z"/><path id="V" d="M1490.5 914.1a4.81 4.81 0 0 0-8.261 3.279 4.81 4.81 0 0 0 8.161 3.521 4.77 4.77 0 0 0 .1-6.8z"/><path id="W" d="M1173.6 947.2a4.81 4.81 0 0 0-8.261 3.279A4.81 4.81 0 0 0 1173.5 954a4.86 4.86 0 0 0 .1-6.8z"/><path id="X" d="M1222.8 1065.3a4.81 4.81 0 0 0-8.261 3.279 4.81 4.81 0 0 0 8.161 3.521 4.68 4.68 0 0 0 .1-6.8z"/><path id="Y" d="M1311.2 900.7a3.39 3.39 0 0 0-4.891 4.696 3.39 3.39 0 0 0 4.791.104 3.35 3.35 0 0 0 .1-4.8z"/><path id="Z" d="M1362.5 937.4a3.39 3.39 0 0 0-4.891 4.696 3.39 3.39 0 0 0 4.791.104 3.44 3.44 0 0 0 .1-4.8z"/><path id="a" d="M1014.4 1211a4.81 4.81 0 0 0-8.261 3.279 4.81 4.81 0 0 0 8.161 3.521 4.86 4.86 0 0 0 .1-6.8z"/><path id="b" d="M1190.7 1194.4a4.77 4.77 0 0 0 5.899 7.497 4.77 4.77 0 0 0 .801-6.697 4.86 4.86 0 0 0-6.7-.8z"/><path id="c" d="M1200.1 1155.1a4.77 4.77 0 0 0 5.899 7.497 4.77 4.77 0 0 0 .801-6.697 4.7 4.7 0 0 0-6.7-.8z"/><path id="d" d="M1205.9 947a7.68 7.68 0 0 1 10.9 1.3 7.81 7.81 0 0 1-1.3 11 7.68 7.68 0 0 1-10.9-1.3 7.81 7.81 0 0 1 1.3-11z"/><path id="e" d="M1443.5 1057.9a7.68 7.68 0 0 1 10.9 1.3 7.81 7.81 0 0 1-1.3 11 7.68 7.68 0 0 1-10.9-1.3 7.9 7.9 0 0 1 1.3-11z"/><path id="f" d="M1928.6 680.9a7.68 7.68 0 0 1 10.9 1.3 7.81 7.81 0 0 1-1.3 11 7.68 7.68 0 0 1-10.9-1.3 7.79 7.79 0 0 1 1.3-11z"/><path id="g" d="M1779.2 848a7.68 7.68 0 0 1 10.9 1.3 7.81 7.81 0 0 1-1.3 11 7.68 7.68 0 0 1-10.9-1.3 7.88 7.88 0 0 1 1.3-11z"/><path id="h" d="M465.5 1158.7a7.68 7.68 0 0 1 10.9 1.3 7.81 7.81 0 0 1-1.3 11 7.68 7.68 0 0 1-10.9-1.3 8 8 0 0 1 1.3-11z"/><path id="i" d="M736.6 760.9a5.43 5.43 0 0 1 7.7.9 5.56 5.56 0 0 1-.9 7.8 5.43 5.43 0 0 1-7.7-.9 5.56 5.56 0 0 1 .9-7.8z"/><path id="j" d="M1820.7 706a5.43 5.43 0 0 1 7.7.9 5.56 5.56 0 0 1-.9 7.8 5.43 5.43 0 0 1-7.7-.9 5.55 5.55 0 0 1 .9-7.8z"/><path id="k" d="M1236.1 1169.5a5.43 5.43 0 0 1 7.7.9 5.56 5.56 0 0 1-.9 7.8 5.43 5.43 0 0 1-7.7-.9 5.73 5.73 0 0 1 .9-7.8z"/><path id="l" d="M1222.9 1049.8a5.43 5.43 0 0 1 7.7.9 5.56 5.56 0 0 1-.9 7.8 5.43 5.43 0 0 1-7.7-.9 5.75 5.75 0 0 1 .9-7.8z"/><path id="m" d="M1076.6 1057.2a8.1 8.1 0 0 0-7.799 14.199 8.1 8.1 0 0 0 11.677-9.362 8.1 8.1 0 0 0-3.878-4.837z"/><path id="n" d="M1174.3 933.2a5.75 5.75 0 0 0-5.5 10.1 5.75 5.75 0 0 0 8.265-6.676 5.75 5.75 0 0 0-2.766-3.424z"/><path id="o" d="M1051 1033a9.15 9.15 0 0 0-16.1 8.7 9.15 9.15 0 0 0 12.4 3.7 9.2 9.2 0 0 0 3.7-12.4z"/><path id="p" d="M1644.1 1047.4a6.49 6.49 0 0 0-11.926 1.26 6.49 6.49 0 0 0 9.326 7.54 6.44 6.44 0 0 0 2.6-8.8z"/><path id="q" d="M1219.5 974.5a6.49 6.49 0 0 0-11.926 1.26 6.49 6.49 0 0 0 9.326 7.54 6.52 6.52 0 0 0 2.6-8.8z"/><path id="r" d="M1415.6 964.4a4.57 4.57 0 0 0-8.395.924 4.57 4.57 0 0 0 6.595 5.276 4.58 4.58 0 0 0 1.8-6.2z"/></defs><g clip-path="url(#A)" class="J"><g opacity=".3"><g opacity=".6"><g opacity=".2"><g class="K"><path d="M700.7 1420.2l.5-.1-64.3-445.2 400.7 314.1h.1l601.4 126 .1-.5-601.4-126-401.6-314.8.1.7 64.4 445.8zm414.9-458.7l-.4-1 122.9 107.6 11.6-244.1.5.1-11.6 244.4 182.2 159.5-.3.4-182-159.3-21.2 143.7zm.8.8L1217 1211l21-142.3z"/><path d="M805 1356.7l.5.1 42.7-264.3h-.1L636.7 974.1l-.3.4 211.3 118.3-42.7 263.9zm817.4-491.6l186.8 18.2.1-.5-186-18.1 80.5-100.6-.4-.3-81 101.3z"/><path d="M1609.1 1041.9h.5l13.5-176.5 374.8 230.8.2-.4-375.5-231.3v.4l-13.5 177zM572.8 818.8l.7.5 643.5 392.8.3-.4-642.8-392.4 485.3-10.4-6.4 231.6.5.1 6.5-232.3-.3.1-487.3 10.4z"/><path d="M1059.985 808.391l226.077-64.144.136.481-226.077 64.144z"/><path d="M386.8 858l-.1-.3 187-38.9h.1l343.8 78.8-.1.5-343.8-78.8-186.3 38.8 155.2 382.6 93.7-266.5.2-.6 168.8 382.7 480.6-612 .3-.4 29.9 107.5 323.2 563.2.7 1.2-219.6-187.4h-.1l-104.7-376.8-36.2-63.1.4-.2 35.2 61.4-29.1-104.7-480.6 611.9-.3.3L636.6 975l-93.8 266.5-.2.6zm929.8-4.7l104.1 374.7 217.4 185.5z"/><path d="M1037.4 1289.1l.4-.1 382.8-60.5-.1-.5-382.5 60.4 78-327-.5-.1-78.1 327.8z"/><path d="M1107 1432.7l-70.6-144.5 182.9-78.3-110 222.8 37.1 76 348.4 33.3-.2 2-349-33.4-.6-.1-36.9-75.6-68.8 139.3-1.8-.9zm-67.9-143.4l69 141.2 107-216.5z"/><path d="M1144.824 1510.389l1.497-1.327 170.256 192.101-1.497 1.327z"/><path d="M906.4 1653.9l238.5-142.7 40.5 305.7 2-.3-41-308.6-239 142.9-100.6-292.7 301 75.5.5-2-304.6-76.3 102.7 298.5zM385.7 858.4l.9.4 249.5 116.4.9-1.8-248.7-116 102.5-244.8-1.8-.8-103.3 246.6zm1224.5 182.7l71.3 231.3-415.4-317.6zm-1.6 1.6L1275 959l402.7 308z"/><path d="M1680 1270.6l321.1-175.2-389.9-54.3 176.3-256.8-1.6-1.2-178.3 259.6 387.3 53.9-315.8 172.2.9 1.8zM176.9 468.5l119.6 46.9 15.2 170zm4.8 4l127.2 204.7-14.3-160.4z"/><path d="M200.5 606.5L98.9 536.1l93 17.9-13.6-83.3 2-.3 13.7 84 296.1 56.8.5.1 146.6 361.8 280-76.2 1.8-.5-69.8 195.6 367.2 118.6 53.7-256.6 152.2 275.4-204.4-16.4v.2l-370.3-119.6-1-.3 69.2-194-279.1 76-.9.2-146.6-362.4-294.8-56.6 8 48.9 108.5 75.1.6.4-60 237.3zm2.3 1.6l49.1 300.4 57.2-226.7zm-10.5-52l-84.5-16.2 92.3 63.9zM1271 959.7l-52.7 251.3 200.4 16.1z"/><path d="M0 630.5l310.3 51.8.3-.1 179.7-69.1-.8-1.8-179.4 68.9L.3 628.6l-.3 1.9zm926.9 572.4l292.6 10.1L919 898.1l276.8-173.3 268.9 61.5.3-1 277 306.1-1.9-.5-276.9-307-267.7-61.2-.4.2-279.2 174.8 298.8 313.1-287.8-9.9v2z"/><path d="M1795.3 865.6l.9.4-509.5-121.7 321.2 296-144.4-255-.8-1.4 160.3 80.6.1.1 77.7 142.9 164.8-61 .3.9-164.6 61 130.2 239.5-545.8-503-.3-.2zm-94.9 143.1l-90.5 33.5 217.9 200.8zm-77.9-143.4l-157.3-79 144.4 255 90.4-33.5z"/><path d="M1194.992 724.508l1.219-1.586 413.782 318.08-1.219 1.586z"/></g><use xlink:href="#B"/><path d="M811.9 1351.2a8.64 8.64 0 1 0-.7 12.2 8.67 8.67 0 0 0 .7-12.2zM642 968.6a8.64 8.64 0 1 0-.7 12.2 8.67 8.67 0 0 0 .7-12.2zM392.3 852.8a8.58 8.58 0 1 0-12.9 11.5 8.58 8.58 0 0 0 12.2.7 8.77 8.77 0 0 0 .7-12.2zM496 605.6a8.58 8.58 0 1 0-12.9 11.5 8.58 8.58 0 0 0 12.2.7 8.68 8.68 0 0 0 .7-12.2zm-179.1 69.7a8.58 8.58 0 1 0-12.9 11.5 8.58 8.58 0 0 0 12.2.7 8.67 8.67 0 0 0 .7-12.2zM1225 1205a10.7 10.7 0 1 0-.9 15.1c4.4-3.93 4.802-10.675.9-15.1zm-23.8-486.4a8.64 8.64 0 1 0-.7 12.2 8.58 8.58 0 0 0 .7-12.2zm91.3 20.7a8.64 8.64 0 1 0-.7 12.2 8.77 8.77 0 0 0 .7-12.2zm395.4 527.3a8.64 8.64 0 1 0-.7 12.2 8.76 8.76 0 0 0 .7-12.2zm-71.3-231.3a8.64 8.64 0 1 0-.7 12.2 8.58 8.58 0 0 0 .7-12.2zm-337.9-84.6a8.64 8.64 0 1 0-.7 12.2 8.58 8.58 0 0 0 .7-12.2zm-126.6 553.2a8.64 8.64 0 1 0-.7 12.2 8.68 8.68 0 0 0 .7-12.2zm-37.6-74.7a8.64 8.64 0 1 0-.7 12.2 8.58 8.58 0 0 0 .7-12.2zm-70.3 138.6a8.64 8.64 0 1 0-.7 12.2 8.76 8.76 0 0 0 .7-12.2z"/><use xlink:href="#C"/><use xlink:href="#D"/><path d="M1120.1 957.4a6.14 6.14 0 0 0-8.6-.5 6 6 0 0 0-.5 8.6 6.14 6.14 0 0 0 8.6.5 6 6 0 0 0 .5-8.6zm122.3-203.9a4.32 4.32 0 1 0-.4 6.1 4.29 4.29 0 0 0 .4-6.1zm22.4 18.8a4.32 4.32 0 1 0-.4 6.1 4.3 4.3 0 0 0 .4-6.1zm17.9 13.3a4.32 4.32 0 1 0-.4 6.1 4.39 4.39 0 0 0 .4-6.1zm22.6 17.7a4.32 4.32 0 1 0-.4 6.1 4.21 4.21 0 0 0 .4-6.1zm-727.9 11.5a6.14 6.14 0 0 0-8.6-.5 6 6 0 0 0-.5 8.6c2.237 2.513 6.087 2.737 8.6.5s2.737-6.087.5-8.6zM299.1 512.7a6.14 6.14 0 0 0-8.6-.5 6 6 0 0 0-.5 8.6 6.14 6.14 0 0 0 8.6.5 6 6 0 0 0 .5-8.6zM846.3 1130a6.14 6.14 0 0 0-8.6-.5 6 6 0 0 0-.5 8.6 6.14 6.14 0 0 0 8.6.5 6 6 0 0 0 .5-8.6zm211.6-93.5a6.14 6.14 0 0 0-8.6-.5 6 6 0 0 0-.5 8.6 6.14 6.14 0 0 0 8.6.5 6 6 0 0 0 .5-8.6zm-36.7 48.8a6.14 6.14 0 0 0-8.6-.5 6 6 0 0 0-.5 8.6c2.237 2.513 6.087 2.737 8.6.5s2.737-6.087.5-8.6zm-137.3-83.1a6.14 6.14 0 0 0-8.6-.5 6 6 0 0 0-.5 8.6c2.237 2.513 6.087 2.737 8.6.5s2.737-6.087.5-8.6zm-110.5-66.9a6.14 6.14 0 0 0-8.6-.5 6 6 0 0 0-.5 8.6c2.237 2.513 6.087 2.737 8.6.5s2.737-6.087.5-8.6zm211.5 196.3a6.14 6.14 0 0 0-8.6-.5 6 6 0 0 0-.5 8.6c2.237 2.513 6.087 2.737 8.6.5s2.737-6.087.5-8.6zm77.6 72.2a6.14 6.14 0 0 0-8.6-.5 6 6 0 0 0-.5 8.6c2.237 2.513 6.087 2.737 8.6.5s2.737-6.087.5-8.6zm9.3-42.9a6.14 6.14 0 0 0-8.6-.5 6 6 0 0 0-.5 8.6 6.14 6.14 0 0 0 8.6.5 6 6 0 0 0 .5-8.6zm-.3-41.4a6.09 6.09 0 1 0 8.5 1.4 6.1 6.1 0 0 0-8.5-1.4zm14.2-49.5a6.09 6.09 0 1 0 8.5 1.4 6.17 6.17 0 0 0-8.5-1.4zm-232.9 18.5a6.14 6.14 0 0 0-8.6-.5 6 6 0 0 0-.5 8.6c2.237 2.513 6.087 2.737 8.6.5s2.737-6.087.5-8.6zm78.6 110.3a6.14 6.14 0 0 0-8.6-.5 6 6 0 0 0-.5 8.6 6.14 6.14 0 0 0 8.6.5 6 6 0 0 0 .5-8.6zm109.5 85.4a6.14 6.14 0 0 0-8.6-.5 6 6 0 0 0-.5 8.6 6.14 6.14 0 0 0 8.6.5 6 6 0 0 0 .5-8.6zm696.2-412.7a6.14 6.14 0 0 0-8.6-.5 6 6 0 0 0-.5 8.6c2.237 2.513 6.087 2.737 8.6.5s2.737-6.087.5-8.6zm-1.8 183.6a6.14 6.14 0 0 0-8.6-.5 6 6 0 0 0-.5 8.6 6.14 6.14 0 0 0 8.6.5 6.05 6.05 0 0 0 .5-8.6zm67.4-86.4a6.14 6.14 0 0 0-8.6-.5 6 6 0 0 0-.5 8.6c2.237 2.513 6.087 2.737 8.6.5s2.737-6.087.5-8.6zm-94.6-57.9a6.14 6.14 0 0 0-8.6-.5 6 6 0 0 0-.5 8.6c2.237 2.513 6.087 2.737 8.6.5s2.737-6.087.5-8.6zm-309.3 73.5a6.14 6.14 0 0 0-8.6-.5 6 6 0 0 0-.5 8.6c2.237 2.513 6.087 2.737 8.6.5s2.737-6.087.5-8.6zm66.4 112.5a6.14 6.14 0 0 0-8.6-.5 6 6 0 0 0-.5 8.6c2.237 2.513 6.087 2.737 8.6.5s2.737-6.087.5-8.6zm-39.9 127.2a6.14 6.14 0 0 0-8.6-.5 6 6 0 0 0-.5 8.6c2.237 2.513 6.087 2.737 8.6.5s2.737-6.087.5-8.6zm-230 36.1a6.14 6.14 0 0 0-8.6-.5 6 6 0 0 0-.5 8.6c2.237 2.513 6.087 2.737 8.6.5s2.737-6.087.5-8.6zm-25.6 51.2a6.14 6.14 0 0 0-8.6-.5 6 6 0 0 0-.5 8.6c2.237 2.513 6.087 2.737 8.6.5s2.737-6.087.5-8.6zm457.5-450.8a6.14 6.14 0 0 0-8.6-.5 6 6 0 0 0-.5 8.6c2.237 2.513 6.087 2.737 8.6.5s2.737-6.087.5-8.6z"/></g><g opacity=".07"><g class="K"><path d="M373.5 1226.6l.5.2 210.1-463.5L774 1307.2l.1.1 495.6 487.1.4-.4-495.6-487.1-190.4-545.1-.2.7-210.4 464.1zm674.3-183.9l.2-1.2 51.5 177.7 581.4-668.5.4.4-581.7 668.7 76.2 263.2-.5.2-76.1-262.8-107.8 124zm.4 1.3l-55.9 298.4 106.7-122.7z"/><path d="M511.4 1229.8l.4.4 201.7-225.8-.1-.1-129-241.8-.5.2 128.9 241.6-201.4 225.5zm1077.5 30.5l166.8 131.3.3-.4-165.9-130.7 137.9-46.8-.2-.5-138.9 47.1z"/><path d="M1468.6 1420.6l.4.4 120.4-160.1 216.1 448.8.5-.3-216.5-449.6-.2.4-120.7 160.4zM618.2 575.5l.4.9 373 767.1.5-.2L619.6 577l468.2 286.3-147.4 216.8.5.3 147.7-217.3-.2-.1-470.2-287.5z"/><path d="M1088.1 863.5l254.2 76.8.2-.5-254.2-76.9-.2.6z"/><path d="M417.3 499.3l.1-.3 201.7 77h.1l279.2 285-.4.4-279.3-284.9-201-76.7-85.4 459.3 251.6-196.7.6-.4-72.6 467.7 830.4-289.9.5-.2-37 120.6-35.6 734-.1 1.6-94.8-312.6v-.1l130-422.9 4-82.2h.6l-3.9 80 36.1-117.5-830.4 289.8-.4.2 72.4-467.3L332 959.9l-.6.5zm887.8 563.1L1175.8 1483l93.9 309.5z"/><path d="M773.8 1307.2l.4.1 401.2 176 .3-.5L774.8 1307l273.5-264-.4-.4-274.1 264.6z"/><path d="M752.5 1486.5l20.8-180.7 221.8 37-240.5 145.1-11 95 311.3 244.5-1.4 1.8-311.8-244.9-.5-.4 10.9-94.6-150.3 90.7-1.2-1.9zm22.8-178.1l-20.4 176.7 233.8-141z"/><path d="M741.3 1583.6l45 287 2.2-.4-45-287-2.2.4z"/><path d="M426.7 1574.9l314 9.6-147.7 316 2 .9 149.2-319.1-314.6-9.6 82.6-340.4L752.7 1488l1.6-1.6L511 1227.7l-84.3 347.2zM416 499l.6 1 166.6 263.2 1.9-1.2-166-262.3 246.8-170.8-1.3-1.8L416 499zm1054.1 921.5l-73.1 263.9-201.8-556.2zm-2.5.6L1201 1137.7l195.6 539.3z"/><path d="M1396.7 1681.8l412.3 29.1-338-289.7 273.4-104.4-.8-2.1-277 105.7 335.8 287.8-405.5-28.6-.2 2.2zM454.9 0l85.2 117.6-89.2 171.3zm2.1 6.8l-3.7 272.6 84.2-161.6z"/><path d="M393.3 145.9L339.5 16.8l77.7 73.8L455 2.9l2.1.9L419 92.2l247 235 .4.4-81 434.2 313 98.3 2.1.6-185.7 143.9L992 1341.7l207.5-211.7-23 355.2-184.6-140.4-.2.2-279.4-339.9-.7-.9 184.1-142.6-311.9-98-1-.3 81.2-435L417.9 94.4l-22.2 51.5 57.5 137.8.3.7-201.6 189.7zm1.2 2.9L258.2 465l192.6-181.1zm21.7-56l-70.5-67 48.9 117.3zm780.6 1043.1l-203.2 207.3 181 137.7z"/><path d="M187.8 46.4l263.8 238.8h.3L665 329.1l.4-2.2-212.7-43.8L189.3 44.8l-1.5 1.6zm533.3 1111.2l272.4 188.3-94.1-483.6 369 3.9 218.5 222.7.8-.7 191.5-189.9-1.6-1.6-190.7 189.1L1269.4 864h-.5l-372.2-3.9 93.5 480.8-267.8-185.2-1.3 1.9z"/><path d="M1754.3 678.2l.7.9-411.9 261.2 125.3 478.2 18-331.1.1-1.9 103.5 174.6.1.2-13.1 183.6 194 42.4-.2 1.1-193.9-42.4-22 307.7-213-812.5-.1-.4zm-178.6 766.5l-106.6-23.3 85 324.4zm13.2-184.2l-101.5-171.3-18 331.1 106.4 23.3z"/><path d="M1267.825 865.637l2.164-.778 199.871 555.773-2.164.778z"/></g><path d="M905.3 860.1a9.72 9.72 0 0 0-19.188 3.118A9.72 9.72 0 0 0 897.2 871.3a9.88 9.88 0 0 0 8.1-11.2z"/><use xlink:href="#E"/><path d="M592.8 760.5a9.72 9.72 0 1 0-8.1 11.2 9.88 9.88 0 0 0 8.1-11.2zM425.7 497.7a9.65 9.65 0 0 0-11.1-8.1 9.7 9.7 0 0 0-8.1 11.2 9.65 9.65 0 0 0 11.1 8.1 9.88 9.88 0 0 0 8.1-11.2zm249.4-172.3a9.72 9.72 0 1 0-8.1 11.2 9.88 9.88 0 0 0 8.1-11.2zm-213-42.9a9.65 9.65 0 0 0-11.1-8.1 9.7 9.7 0 0 0-8.1 11.2 9.63 9.63 0 0 0 11.1 8.1 9.77 9.77 0 0 0 8.1-11.2zm541.5 1059.1c-1.07-6.583-7.266-11.059-13.852-10.007s-11.079 7.235-10.045 13.824 7.205 11.099 13.797 10.083c6.596-1.1 11.092-7.287 10.1-13.9zm273.8-478.1a9.72 9.72 0 1 0-8.1 11.2 9.77 9.77 0 0 0 8.1-11.2z"/><use xlink:href="#F"/><path d="M1406.6 1682.8a9.72 9.72 0 1 0-8.1 11.2 9.77 9.77 0 0 0 8.1-11.2zm73.1-263.8a9.72 9.72 0 1 0-8.1 11.2 9.88 9.88 0 0 0 8.1-11.2zm-270.1-286.9a9.72 9.72 0 1 0-8.1 11.2 9.8 9.8 0 0 0 8.1-11.2zm-457.5 449.8a9.72 9.72 0 1 0-8.1 11.2 9.88 9.88 0 0 0 8.1-11.2zm9.7-94.1a9.72 9.72 0 1 0-8.1 11.2 9.88 9.88 0 0 0 8.1-11.2zM610.3 1577a9.72 9.72 0 1 0-8.1 11.2 9.8 9.8 0 0 0 8.1-11.2zm884.2-489.9a6.89 6.89 0 1 0-5.7 7.9 6.83 6.83 0 0 0 5.7-7.9z"/><use xlink:href="#G"/><path d="M1054.6 1041.6a6.89 6.89 0 0 0-12.389-2.933 6.89 6.89 0 0 0 6.689 10.833 6.83 6.83 0 0 0 5.7-7.9z"/><use xlink:href="#H"/><path d="M1305.2 953.5a4.91 4.91 0 1 0-4.1 5.6 4.88 4.88 0 0 0 4.1-5.6zm8.8 23.7a4.91 4.91 0 1 0-4.1 5.6 4.88 4.88 0 0 0 4.1-5.6zm10.9 30.6a4.91 4.91 0 1 0-4.1 5.6 4.88 4.88 0 0 0 4.1-5.6zM625 574.4a6.89 6.89 0 1 0-5.7 7.9 6.91 6.91 0 0 0 5.7-7.9zm-80.7-457.7a6.83 6.83 0 0 0-13.6 2.2 6.83 6.83 0 0 0 7.9 5.7 6.91 6.91 0 0 0 5.7-7.9zM688.9 1039a6.89 6.89 0 1 0-5.7 7.9 7 7 0 0 0 5.7-7.9zm258.4 40a6.89 6.89 0 1 0-5.7 7.9 7 7 0 0 0 5.7-7.9zm-64.8 24.1a6.89 6.89 0 1 0-5.7 7.9 6.83 6.83 0 0 0 5.7-7.9zm-80-163a6.89 6.89 0 1 0-5.7 7.9 6.91 6.91 0 0 0 5.7-7.9zm-64.4-131.2a6.89 6.89 0 1 0-5.7 7.9 6.91 6.91 0 0 0 5.7-7.9z"/><use xlink:href="#I"/><path d="M849.7 1241.2a6.89 6.89 0 1 0-5.7 7.9 6.91 6.91 0 0 0 5.7-7.9zm35-35.2a6.89 6.89 0 1 0-5.7 7.9 6.91 6.91 0 0 0 5.7-7.9zm24.8-39.6a6.93 6.93 0 0 0-6.5 7.3 6.84 6.84 0 0 0 7.2 6.5 6.93 6.93 0 0 0 6.5-7.3 6.72 6.72 0 0 0-7.2-6.5zm43.8-38.5a6.93 6.93 0 0 0-6.5 7.3 6.84 6.84 0 0 0 7.2 6.5 6.91 6.91 0 0 0-.7-13.8zm-233-124.5a6.89 6.89 0 1 0-5.7 7.9 7 7 0 0 0 5.7-7.9zm7.6 153.1a6.89 6.89 0 1 0-5.7 7.9 6.91 6.91 0 0 0 5.7-7.9zm966.3 179.9a6.89 6.89 0 1 0-5.7 7.9 6.91 6.91 0 0 0 5.7-7.9zm-113.5 173.8a6.89 6.89 0 1 0-5.7 7.9 6.91 6.91 0 0 0 5.7-7.9zm116.7-41.2a6.89 6.89 0 1 0-5.7 7.9 7 7 0 0 0 5.7-7.9zm-54.8-112.9a6.89 6.89 0 1 0-5.7 7.9 6.83 6.83 0 0 0 5.7-7.9zm-339.1-118.7a6.89 6.89 0 1 0-5.7 7.9 7 7 0 0 0 5.7-7.9zm-5.4 147.7a6.89 6.89 0 1 0-5.7 7.9 7 7 0 0 0 5.7-7.9zm-115.5 96.8a6.89 6.89 0 1 0-5.7 7.9 6.91 6.91 0 0 0 5.7-7.9zM941.7 1376a6.89 6.89 0 1 0-5.7 7.9 6.91 6.91 0 0 0 5.7-7.9zm-55.6 33.1a6.89 6.89 0 1 0-5.7 7.9 6.91 6.91 0 0 0 5.7-7.9zm710.2-150.3a6.89 6.89 0 1 0-5.7 7.9 6.83 6.83 0 0 0 5.7-7.9z"/></g></g><g opacity=".5"><g class="K"><path d="M911 1444.3l.4-.1-67.3-347.2 326.4 231.8h.1l476.8 76.6.1-.3-476.8-76.7-327.1-232.3.1.5 67.3 347.7zm308.4-375.6l-.3-.7 100.6 80 553.5-337.3h.4L1320 1148.2l149 118.5-.2.3-148.9-118.3-11.3 113.7zm.7.6l88.3 191.6 11.1-112.5z"/><path d="M990.5 1390.6l.4.1 23.6-209.2h-.2l-170.4-85.1-.1.3 170.2 85.1-23.5 208.8zm623.2-416.3l147.3 7.3.1-.4-146.7-7.3 59.4-82-.3-.3-59.8 82.7z"/><path d="M1609.9 1113.6h.4l3.9-139.2 302.9 167.4.2-.3-303.4-167.7-.1.3-3.9 139.5z"/><use xlink:href="#J"/><path d="M1169.992 950.518l175.009-58.727.127.379-175.009 58.727z"/><use xlink:href="#K"/><path d="M1170.3 1328.9l.3-.1 298.3-61.7-.1-.4-298 61.7 49-259.7-.4-.1-49.1 260.3z"/><use xlink:href="#L"/><path d="M1263.1 1498.6l140.9 144.6 1.1-1.1-140.9-144.6-1.1 1.1z"/><use xlink:href="#M"/><path d="M642.6 1014.8l.7.3 200.3 82.2.6-1.5-199.6-81.8 71.3-196.1-1.5-.6-71.8 197.5zm968.1 98.1l64.6 179-338-234zm-1.2 1.3l-265-53.4 327.7 226.9z"/><path d="M1674.2 1290.5l245.5-149.4-308.2-28.2 113.1-169.2-1.3-.8-114.6 171.3 306.1 28-241.5 147 .9 1.3zM464 716.3l95.6 32.4 18.3 133zm3.9 3l107.5 156-17.2-125.4z"/><use xlink:href="#N"/><path d="M331.2 850.2l245.6 29.1.2-.1 138.4-60.9-.6-1.4-138.2 60.8-245.2-29.1-.2 1.6zm749.1 415.1l230.2-2.9-247.8-236.2 210.8-146.3 213.5 38.3.1-.8 358.1-93.7-1.5-.3-358 93-212.5-38.2-.3.2-212.6 147.6 246.3 234.9-226.3 2.8v1.6z"/><path d="M1871.8 745.3l.7.3-526.9 146.2 263.3 220.6L1486 917.5l-.7-1.1 128.9 57.3.1.1 66.4 109.4 127.1-54 .3.7-127 54 111.2 183.2-447.4-374.8-.2-.2zm-191.4 338.8l-69.8 29.7 178.6 149.6zm-66.6-109.7l-126.4-56.2 122.9 194.9 69.7-29.6z"/><path d="M1272.848 879.662l.914-1.313 336.779 234.503-.914 1.313z"/></g><use xlink:href="#O"/><path d="M995.7 1386a6.79 6.79 0 0 0-11.642 4.679 6.79 6.79 0 0 0 11.542 4.921 6.88 6.88 0 0 0 .1-9.6z"/><use xlink:href="#P"/><path d="M647.5 1010.2a6.79 6.79 0 0 0-11.642 4.679 6.79 6.79 0 0 0 11.542 4.921 6.79 6.79 0 0 0 .1-9.6z"/><use xlink:href="#Q"/><use xlink:href="#R"/><use xlink:href="#S"/><path d="M1277.6 874.8a6.79 6.79 0 1 0-.1 9.6 6.88 6.88 0 0 0 .1-9.6zm72.4 12.8a6.79 6.79 0 1 0-.1 9.6 6.88 6.88 0 0 0 .1-9.6zm330.2 399.5a6.79 6.79 0 1 0-.1 9.6 6.88 6.88 0 0 0 .1-9.6zm-64.6-179a6.79 6.79 0 1 0-.1 9.6 6.88 6.88 0 0 0 .1-9.6z"/><use xlink:href="#T"/><path d="M1268.5 1493.3a6.79 6.79 0 1 0-.1 9.6 6.88 6.88 0 0 0 .1-9.6zm-32.3-57.2a6.79 6.79 0 1 0-.1 9.6 6.88 6.88 0 0 0 .1-9.6z"/><use xlink:href="#U"/><use xlink:href="#V"/><use xlink:href="#W"/><use xlink:href="#X"/><use xlink:href="#Y"/><path d="M1329.5 914.6a3.39 3.39 0 1 0-.1 4.8 3.35 3.35 0 0 0 .1-4.8zm14.5 9.8a3.39 3.39 0 1 0-.1 4.8 3.35 3.35 0 0 0 .1-4.8z"/><use xlink:href="#Z"/><path d="M791.4 973.4a4.81 4.81 0 1 0-.1 6.8 4.77 4.77 0 0 0 .1-6.8zM561.6 746.5a4.81 4.81 0 1 0-.1 6.8 4.77 4.77 0 0 0 .1-6.8z"/><use xlink:href="#a"/><path d="M1177 1129.8a4.81 4.81 0 1 0-.1 6.8 4.86 4.86 0 0 0 .1-6.8zm-27 39.6a4.81 4.81 0 1 0-.1 6.8 4.86 4.86 0 0 0 .1-6.8zm-111-60.1a4.81 4.81 0 1 0-.1 6.8 4.68 4.68 0 0 0 .1-6.8zm-89.2-48.5a4.81 4.81 0 1 0-.1 6.8 4.77 4.77 0 0 0 .1-6.8zm173.4 146.3a4.81 4.81 0 1 0-.1 6.8 4.86 4.86 0 0 0 .1-6.8zm63.7 53.8a4.81 4.81 0 1 0-.1 6.8 4.86 4.86 0 0 0 .1-6.8zm5.7-34a4.81 4.81 0 1 0-.1 6.8 4.86 4.86 0 0 0 .1-6.8z"/><use xlink:href="#b"/><use xlink:href="#c"/><path d="M1017.9 1178.2a4.81 4.81 0 1 0-.1 6.8 4.86 4.86 0 0 0 .1-6.8zm65.9 83.7a4.81 4.81 0 1 0-.1 6.8 4.86 4.86 0 0 0 .1-6.8zm89.1 63a4.81 4.81 0 1 0-.1 6.8 4.68 4.68 0 0 0 .1-6.8zM1704 975a4.81 4.81 0 1 0-.1 6.8 4.86 4.86 0 0 0 .1-6.8zm5.5 144.2a4.81 4.81 0 1 0-.1 6.8 4.86 4.86 0 0 0 .1-6.8zm49.6-70.3a4.81 4.81 0 1 0-.1 6.8 4.86 4.86 0 0 0 .1-6.8zm-76.4-41.9a4.81 4.81 0 1 0-.1 6.8 4.86 4.86 0 0 0 .1-6.8zm-240.1 69.1a4.81 4.81 0 1 0-.1 6.8 4.77 4.77 0 0 0 .1-6.8zm56.4 85.9a4.81 4.81 0 1 0-.1 6.8 4.86 4.86 0 0 0 .1-6.8zm-26.6 101.4a4.81 4.81 0 1 0-.1 6.8 4.77 4.77 0 0 0 .1-6.8zm-179.2 36.9a4.81 4.81 0 1 0-.1 6.8 4.77 4.77 0 0 0 .1-6.8zm-18.2 41.1a4.81 4.81 0 1 0-.1 6.8 4.77 4.77 0 0 0 .1-6.8zm342.3-371a4.81 4.81 0 1 0-.1 6.8 4.86 4.86 0 0 0 .1-6.8z"/><g class="K"><path d="M911 1444.3l35.6 181.9L844.1 1097l326.4 231.8h.1l476.8 76.6.1-.3-476.8-76.7-327.1-232.3.1.5 67.3 347.7zm308.4-375.6l-.3-.7 100.6 80 31.2-337.4h.4l-31.3 337.6 149 118.5-.2.3-148.9-118.3-11.3 113.7zm.7.6l88.3 191.6 11.1-112.5z"/><path d="M990.5 1390.6l.4.1 23.6-209.2h-.2l-170.4-85.1-.1.3 170.2 85.1-23.5 208.8zm623.2-416.3l222.2 10.4v-.3l-221.5-10.5 216.9-300.5-.3-.3-217.3 301.2z"/><path d="M1609.9 1113.6h.4l3.9-139.2 302.9 167.4.2-.3-303.4-167.7-.1.3-3.9 139.5z"/><use xlink:href="#J"/><path d="M1169.992 950.518l175.009-58.727.127.379-175.009 58.727z"/><use xlink:href="#K"/><path d="M1170.3 1328.9l.3-.1 298.3-61.7-.1-.4-298 61.7 49-259.7-.4-.1-49.1 260.3z"/><use xlink:href="#L"/><path d="M1263.1 1498.6l140.9 144.6 1.1-1.1-140.9-144.6-1.1 1.1z"/><use xlink:href="#M"/><path d="M642.6 1014.8l.7.3 200.3 82.2.6-1.5-199.6-81.8 71.3-196.1-1.5-.6-71.8 197.5zm968.1 98.1l64.6 179-338-234zm-1.2 1.3l-265-53.4 327.7 226.9z"/><path d="M1674.2 1290.5l245.5-149.4-308.2-28.2 217.6-325.5-1.3-.9-219.1 327.7 306.1 28-241.5 147 .9 1.3zM464 716.3l95.6 32.4 18.3 133zm3.9 3l107.5 156-17.2-125.4z"/><use xlink:href="#N"/><path d="M331.2 850.2l245.6 29.1.2-.1 138.4-60.9-.6-1.4-138.2 60.8-245.2-29.1-.2 1.6zm749.1 415.1l230.2-2.9-247.8-236.2 210.8-146.3 213.5 38.3.1-.8 316.8-315.8-1.5-.2-316.7 315-212.5-38.2-.3.2-212.6 147.6 246.3 234.9-226.3 2.8v1.6z"/><path d="M1836.4 690.1l.7.3-491.5 201.4 263.3 220.6L1486 917.5l-.7-1.1 128.9 57.3.1.1 66.4 109.4 127.1-54 .3.7-127 54 111.2 183.2-447.4-374.8-.2-.2zm-156 394l-69.8 29.7 178.6 149.6zm-66.6-109.7l-126.4-56.2 122.9 194.9 69.7-29.6z"/><path d="M1272.848 879.662l.914-1.313 336.779 234.503-.914 1.313z"/></g><use xlink:href="#O"/><path d="M995.7 1386a6.79 6.79 0 0 0-11.642 4.679 6.79 6.79 0 0 0 11.542 4.921 6.88 6.88 0 0 0 .1-9.6z"/><use xlink:href="#P"/><path d="M647.5 1010.2a6.79 6.79 0 1 0-.1 9.6 6.79 6.79 0 0 0 .1-9.6zM471.4 712.9a6.79 6.79 0 1 0-.1 9.6 6.88 6.88 0 0 0 .1-9.6zm-57.8 54.2a6.79 6.79 0 1 0-.1 9.6 6.7 6.7 0 0 0 .1-9.6z"/><use xlink:href="#Q"/><path d="M544.3 1060.4a6.79 6.79 0 0 0-11.642 4.679A6.79 6.79 0 0 0 544.2 1070a6.79 6.79 0 0 0 .1-9.6z"/><use xlink:href="#R"/><use xlink:href="#S"/><path d="M1277.6 874.8a6.79 6.79 0 1 0-.1 9.6 6.88 6.88 0 0 0 .1-9.6zm72.4 12.8a6.79 6.79 0 1 0-.1 9.6 6.88 6.88 0 0 0 .1-9.6zm330.2 399.5a6.79 6.79 0 1 0-.1 9.6 6.88 6.88 0 0 0 .1-9.6zm-64.6-179a6.79 6.79 0 1 0-.1 9.6 6.88 6.88 0 0 0 .1-9.6z"/><use xlink:href="#T"/><path d="M1268.5 1493.3a6.79 6.79 0 1 0-.1 9.6 6.88 6.88 0 0 0 .1-9.6zm-32.3-57.2a6.79 6.79 0 1 0-.1 9.6 6.88 6.88 0 0 0 .1-9.6z"/><use xlink:href="#U"/><use xlink:href="#V"/><use xlink:href="#W"/><use xlink:href="#X"/><use xlink:href="#Y"/><path d="M1329.5 914.6a3.39 3.39 0 1 0-.1 4.8 3.35 3.35 0 0 0 .1-4.8zm14.5 9.8a3.39 3.39 0 1 0-.1 4.8 3.35 3.35 0 0 0 .1-4.8z"/><use xlink:href="#Z"/><path d="M791.4 973.4a4.81 4.81 0 1 0-.1 6.8 4.77 4.77 0 0 0 .1-6.8zM561.6 746.5a4.81 4.81 0 1 0-.1 6.8 4.77 4.77 0 0 0 .1-6.8z"/><use xlink:href="#a"/><path d="M1177 1129.8a4.81 4.81 0 1 0-.1 6.8 4.86 4.86 0 0 0 .1-6.8zm-27 39.6a4.81 4.81 0 1 0-.1 6.8 4.86 4.86 0 0 0 .1-6.8zm-111-60.1a4.81 4.81 0 1 0-.1 6.8 4.68 4.68 0 0 0 .1-6.8zm-89.2-48.5a4.81 4.81 0 1 0-.1 6.8 4.77 4.77 0 0 0 .1-6.8zm173.4 146.3a4.81 4.81 0 1 0-.1 6.8 4.86 4.86 0 0 0 .1-6.8zm63.7 53.8a4.81 4.81 0 1 0-.1 6.8 4.86 4.86 0 0 0 .1-6.8zm5.7-34a4.81 4.81 0 1 0-.1 6.8 4.86 4.86 0 0 0 .1-6.8z"/><use xlink:href="#b"/><use xlink:href="#c"/><path d="M1017.9 1178.2a4.81 4.81 0 1 0-.1 6.8 4.86 4.86 0 0 0 .1-6.8zm65.9 83.7a4.81 4.81 0 1 0-.1 6.8 4.86 4.86 0 0 0 .1-6.8zm89.1 63a4.81 4.81 0 1 0-.1 6.8 4.68 4.68 0 0 0 .1-6.8zM1704 975a4.81 4.81 0 1 0-.1 6.8 4.86 4.86 0 0 0 .1-6.8zm5.5 144.2a4.81 4.81 0 1 0-.1 6.8 4.86 4.86 0 0 0 .1-6.8zm49.6-70.3a4.81 4.81 0 1 0-.1 6.8 4.86 4.86 0 0 0 .1-6.8zm-76.4-41.9a4.81 4.81 0 1 0-.1 6.8 4.86 4.86 0 0 0 .1-6.8zm-240.1 69.1a4.81 4.81 0 1 0-.1 6.8 4.77 4.77 0 0 0 .1-6.8zm56.4 85.9a4.81 4.81 0 1 0-.1 6.8 4.86 4.86 0 0 0 .1-6.8zm-26.6 101.4a4.81 4.81 0 1 0-.1 6.8 4.77 4.77 0 0 0 .1-6.8zm-179.2 36.9a4.81 4.81 0 1 0-.1 6.8 4.77 4.77 0 0 0 .1-6.8zm-18.2 41.1a4.81 4.81 0 1 0-.1 6.8 4.77 4.77 0 0 0 .1-6.8zm342.3-371a4.81 4.81 0 1 0-.1 6.8 4.86 4.86 0 0 0 .1-6.8z"/><g class="K"><path d="M1319.9 1450.7l-67.3 202.2 194.5-588.6-406.3 216.6h-.1l-555.1 17.5v-.4l555.1-17.5 407.1-217.1-.1.5-127.8 386.8zm-427-265.8l3.8-131.3-187 113.1-.2-.4L896.8 1053l8.7-295.8h0l-8.3 295.5 126.4-76.5-.5.8zm4.3-131.6l-3.8 130 128.9-205.7z"/><path d="M1237.1 1377.8h-.4l3.7-242h.2l206.8-72.1.1.4-206.7 72-3.7 241.7zM587.3 811.5l-255.1-20.6v-.4L586.5 811 383.1 436.4l.4-.2 203.8 375.3z"/><path d="M571.1 971l-.4-.1 15.9-159.3-370.1 146.6-.1-.5 370.7-146.8v.4l-16 159.7zm957.7-35.5l-.8.2-634.7 248.6-.2-.5 634.1-248.2-430.4-85.7-30.8 207.3h-.4l30.9-207.8.2.1 432.1 86z"/><path d="M1096.6 849.9l-191.1-92.7.2-.4 191.1 92.7-.2.4z"/><path d="M1488.8 1317.1l-.1-.6-41.4-252-210.5 313.8-.2-.3-331-620.5-42.4 88.6 41.1-49.1.3.3-42.2 50.5-152.7 319h-.1l-225.1 132.3.8-1 376.6-450.6 43.6-91 .2.4 331.1 620.5 210.7-314.1.1.6 41.4 252 198.6-316.2-159.7-63.9-318.4 16.1v-.4l318.5-16.1h0l160.3 64.1-.1.2zm-1002.2-19.8l222.8-131L861.3 849z"/><path d="M1041 1281l-.3-.1-331.2-114.1.1-.5 330.9 114.1-17.8-303.5h.5L1041 1281z"/><path d="M996 1534.1l-1.7.5-39.2-134.8-44.8 61.5h-.5l-315.9-25.2.1-1.8 315.4 25.1 45-61.8-62.8-215.6 150.4 98.5-85.7 117.5zm-101.3-348l61 209.6 83.7-114.8z"/><path d="M910.3 1461l-181.9 144.3-1.1-1.5 181.9-144.2 1.1 1.4z"/><path d="M1100 1626.5l-189.8-164.6-84.3 265.8-1.7-.6 85.1-268.4 190.2 165 135.8-244.8-279.9 19.8-.1-1.8 283.2-20.1-138.5 249.7zm589-626.3l-.8.2-240.5 64.3-.5-1.7 239.7-64.1-52.6-234.2 1.8-.3 52.9 235.8zm-798.8-52.8l-419.8 217.4 99.9-194.7zm-415.6 213.2l407.1-210.8-310.2 22z"/><path d="M471.9 1163.4L213.8 957l355.6 13-200.5-403.3 1.6-.8 201.9 406L219.1 959 473 1162l-1.1 1.4zm1310.4-305.7l40.4-149 113.8-22.9zm41.8-147.4L1786 850.9l145.5-162.2z"/><path d="M1799 1074.5l-15.7-220.8.6-.3 108.4-49.8 14.8-42.3-271.4 4-187.9 299.7-.7-.3-236.4-111.6 31 183.6-.9.1-348.5 48.3v-.2l-184.5-17.6 179-221.1 7.3 236.9 345.5-47.9-31.3-185.1 1.6.7 237.2 111.9 187.6-299.1h.5l272.5-4.1 25.5-72.6 1.7.6-25.3 72 85.6-1.3-101.6 46.7zm-13.9-219.6l15.1 210.9 91.2-259.7zm109.4-52.3l92.2-42.4-77.8 1.2zM711.3 1165.8l180.9 17.2-7.1-232z"/><path d="M2068.3 858l-284.4-2.8-.2-.1-149-89.8 1-1.5 148.7 89.6 283.9 2.8v1.8zM1153 1221.7l-262.1-37.1 317.2-233.1-219-197.8L740 766.2v-1L411.3 558h1.7l328.7 206.3 248-12.4.3.3 220.9 199.5-315.4 231.8 257.7 36.4-.2 1.8z"/><path d="M570.534 970.155L989.01 752.032l.832 1.596-418.475 218.123z"/></g><use xlink:href="#d"/><path d="M1231.9 1371.8a7.68 7.68 0 0 1 10.9 1.3 7.81 7.81 0 0 1-1.3 11 7.68 7.68 0 0 1-10.9-1.3 7.81 7.81 0 0 1 1.3-11z"/><use xlink:href="#e"/><path d="M1684.1 994.1a7.68 7.68 0 0 1 10.9 1.3 7.81 7.81 0 0 1-1.3 11 7.68 7.68 0 0 1-10.9-1.3 7.9 7.9 0 0 1 1.3-11z"/><use xlink:href="#f"/><path d="M1986.5 751.1a7.68 7.68 0 0 1 10.9 1.3 7.81 7.81 0 0 1-1.3 11 7.68 7.68 0 0 1-10.9-1.3 7.81 7.81 0 0 1 1.3-11zm-355.7 6.6a7.68 7.68 0 0 1 10.9 1.3 7.81 7.81 0 0 1-1.3 11 7.68 7.68 0 0 1-10.9-1.3 7.9 7.9 0 0 1 1.3-11zm163.6 308.8a7.68 7.68 0 0 1 10.9 1.3 7.81 7.81 0 0 1-1.3 11 7.68 7.68 0 0 1-10.9-1.3 7.9 7.9 0 0 1 1.3-11z"/><use xlink:href="#g"/><path d="M887.2 1176.7a9.68 9.68 0 0 1 11.995 15.196c-4.195 3.312-10.281 2.598-13.595-1.597a9.69 9.69 0 0 1 1.6-13.6zm98.1-429.4a7.68 7.68 0 0 1 10.9 1.3 7.81 7.81 0 0 1-1.3 11 7.68 7.68 0 0 1-10.9-1.3 7.81 7.81 0 0 1 1.3-11zm-84.5 4.1a7.68 7.68 0 0 1 10.9 1.3 7.81 7.81 0 0 1-1.3 11 7.68 7.68 0 0 1-10.9-1.3 7.81 7.81 0 0 1 1.3-11z"/><use xlink:href="#h"/><path d="M565.5 964a7.68 7.68 0 0 1 10.9 1.3 7.81 7.81 0 0 1-1.3 11 7.68 7.68 0 0 1-10.9-1.3 7.89 7.89 0 0 1 1.3-11zm314.1-22.2a7.68 7.68 0 0 1 10.9 1.3 7.81 7.81 0 0 1-1.3 11 7.68 7.68 0 0 1-10.9-1.3 8 8 0 0 1 1.3-11zm25.3 512.4a7.68 7.68 0 0 1 10.9 1.3 7.81 7.81 0 0 1-1.3 11 7.68 7.68 0 0 1-10.9-1.3 8 8 0 0 1 1.3-11zm45.3-60.5a7.68 7.68 0 0 1 10.9 1.3 7.81 7.81 0 0 1-1.3 11 7.68 7.68 0 0 1-10.9-1.3 7.79 7.79 0 0 1 1.3-11zm40.7 134.5a7.68 7.68 0 0 1 10.9 1.3 7.81 7.81 0 0 1-1.3 11 7.68 7.68 0 0 1-10.9-1.3 7.88 7.88 0 0 1 1.3-11z"/><use xlink:href="#i"/><path d="M1093.3 845.1a5.43 5.43 0 0 1 7.7.9 5.56 5.56 0 0 1-.9 7.8 5.43 5.43 0 0 1-7.7-.9 5.56 5.56 0 0 1 .9-7.8zm-73.6 127.6a5.43 5.43 0 0 1 7.7.9 5.56 5.56 0 0 1-.9 7.8 5.43 5.43 0 0 1-7.7-.9 5.56 5.56 0 0 1 .9-7.8zM943.1 772a3.91 3.91 0 1 1-.6 5.5 3.85 3.85 0 0 1 .6-5.5zm-22.9 13.1a3.91 3.91 0 1 1-.6 5.5 3.86 3.86 0 0 1 .6-5.5zm-18 9.1a3.91 3.91 0 1 1-.6 5.5 3.85 3.85 0 0 1 .6-5.5zm-23 12.2a3.91 3.91 0 1 1-.6 5.5 3.84 3.84 0 0 1 .6-5.5zm646.1 124.7a5.43 5.43 0 0 1 7.7.9 5.56 5.56 0 0 1-.9 7.8 5.43 5.43 0 0 1-7.7-.9 5.56 5.56 0 0 1 .9-7.8z"/><use xlink:href="#j"/><use xlink:href="#k"/><path d="M1062.6 1052.9a5.43 5.43 0 0 1 7.7.9 5.56 5.56 0 0 1-.9 7.8 5.43 5.43 0 0 1-7.7-.9 5.56 5.56 0 0 1 .9-7.8zm25 49.2a5.43 5.43 0 0 1 7.7.9 5.56 5.56 0 0 1-.9 7.8 5.43 5.43 0 0 1-7.7-.9 5.56 5.56 0 0 1 .9-7.8z"/><use xlink:href="#l"/><path d="M1331.8 1007.6a5.43 5.43 0 0 1 7.7.9 5.56 5.56 0 0 1-.9 7.8 5.43 5.43 0 0 1-7.7-.9 5.56 5.56 0 0 1 .9-7.8zm-219.2 141.5a5.43 5.43 0 0 1 7.7.9 5.56 5.56 0 0 1-.9 7.8 5.43 5.43 0 0 1-7.7-.9 5.55 5.55 0 0 1 .9-7.8zm-80.5 52a5.43 5.43 0 0 1 7.7.9 5.56 5.56 0 0 1-.9 7.8 5.43 5.43 0 0 1-7.7-.9 5.56 5.56 0 0 1 .9-7.8zm-1.5-39.7a5.43 5.43 0 0 1 7.7.9 5.56 5.56 0 0 1-.9 7.8 5.43 5.43 0 0 1-7.7-.9 5.56 5.56 0 0 1 .9-7.8zm6.8-36.7a5.52 5.52 0 1 1-7.8-.1 5.52 5.52 0 0 1 7.8.1zm-4.8-46.3a5.52 5.52 0 1 1-7.8-.1 5.52 5.52 0 0 1 7.8.1zm204.4 53.1a5.43 5.43 0 0 1 7.7.9 5.56 5.56 0 0 1-.9 7.8 5.43 5.43 0 0 1-7.7-.9 5.56 5.56 0 0 1 .9-7.8zm-87.5 85.9a5.43 5.43 0 0 1 7.7.9 5.56 5.56 0 0 1-.9 7.8 5.43 5.43 0 0 1-7.7-.9 5.73 5.73 0 0 1 .9-7.8zm-110.9 58.7a5.43 5.43 0 0 1 7.7.9 5.56 5.56 0 0 1-.9 7.8 5.43 5.43 0 0 1-7.7-.9 5.56 5.56 0 0 1 .9-7.8zM484.1 799.2a5.43 5.43 0 0 1 7.7.9 5.56 5.56 0 0 1-.9 7.8 5.43 5.43 0 0 1-7.7-.9 5.55 5.55 0 0 1 .9-7.8zm-27.4 163.6a5.43 5.43 0 0 1 7.7.9 5.56 5.56 0 0 1-.9 7.8 5.43 5.43 0 0 1-7.7-.9 5.56 5.56 0 0 1 .9-7.8zm-46.3-87.4a5.43 5.43 0 0 1 7.7.9 5.56 5.56 0 0 1-.9 7.8 5.43 5.43 0 0 1-7.7-.9 5.56 5.56 0 0 1 .9-7.8zm93.4-36.7a5.43 5.43 0 0 1 7.7.9 5.56 5.56 0 0 1-.9 7.8 5.43 5.43 0 0 1-7.7-.9 5.56 5.56 0 0 1 .9-7.8zm263.6 114.1a5.43 5.43 0 0 1 7.7.9 5.56 5.56 0 0 1-.9 7.8 5.43 5.43 0 0 1-7.7-.9 5.75 5.75 0 0 1 .9-7.8zm-76.8 89.7a5.43 5.43 0 0 1 7.7.9 5.56 5.56 0 0 1-.9 7.8 5.43 5.43 0 0 1-7.7-.9 5.56 5.56 0 0 1 .9-7.8zM706 1162a5.43 5.43 0 0 1 7.7.9 5.56 5.56 0 0 1-.9 7.8 5.43 5.43 0 0 1-7.7-.9 5.56 5.56 0 0 1 .9-7.8zm72.1 145.4a3.2 3.2 0 1 1-.5 4.5 3.19 3.19 0 0 1 .5-4.5zm126.9-77a5.43 5.43 0 0 1 7.7.9 5.56 5.56 0 0 1-.9 7.8 5.43 5.43 0 0 1-7.7-.9 5.56 5.56 0 0 1 .9-7.8zm14.7 49.6a5.43 5.43 0 0 1 7.7.9 5.56 5.56 0 0 1-.9 7.8 5.43 5.43 0 0 1-7.7-.9 5.56 5.56 0 0 1 .9-7.8zm-336-473.4a5.43 5.43 0 0 1 7.7.9 5.56 5.56 0 0 1-.9 7.8 5.43 5.43 0 0 1-7.7-.9 5.56 5.56 0 0 1 .9-7.8z"/><g opacity=".2"><g class="K"><path d="M1047.1 1593.2l.4-.2-197.7-373.5 453.9 151.1h0l572-78.8-.1-.4-571.9 78.7-454.9-151.5.3.6 198 374zm222-537l-.7-.7 142.8 56.4-66.9-219.7.5-.1 67 219.9 211.6 83.5-.2.4-211.4-83.4 26.7 133.9zm1 .4l167.7 188.3-26.5-132.6z"/><path d="M1119.3 1504.1h.5l-45.8-247.4h-.2l-224.4-37.9-.1.5 224.3 37.8 45.7 247zM1687 810.6l171.1-43-.1-.5-170.3 42.9 42.2-122.6-.5-.2-42.4 123.4z"/><path d="M1731.2 971.2l.5-.1-44-160.5 404.7 85.7.1-.5-405.4-85.8.1.4 44 160.8zm-987.5 130.4l.8.2 693.6 144.1.1-.5-692.8-143.9 426.1-162.7 67.5 207 .5-.1-67.7-207.6-.2.1-427.9 163.4z"/><path d="M1171.511 938.3l179.734-128.251.29.407-179.734 128.251z"/><path d="M591.5 1195.2l-.2-.2 153.1-93.6h0l329.2-39 .1.5-329.1 39-152.5 93.2 258.3 289.4-1.3-265.4v-.6l270.4 285.2 231.7-693.5.1-.4 60.4 85.7 464.1 396.1 1 .9-253.6-96.4h-.1l-211.8-300.4-52-44.4.3-.4 50.6 43.2-58.8-83.4-231.6 693.5-.1.4-270.2-285 1.3 265.5v.6zm821.3-298.3l210.7 298.6 251 95.4z"/><path d="M1303.5 1370.7l.3-.1 319.6-174.7-.2-.4-319.3 174.5-34.4-314h-.5l34.5 314.7z"/><path d="M1410.5 1475.8l-108.2-105.5 137-127.1-26.9 231.9 56.9 55.5 318.8-80.7.5 1.8-319.3 80.8-.5.1-56.6-55.2-16.8 145-1.9-.2zm-105.4-105.4l105.7 103.1 26.2-225.4z"/><path d="M1468.571 1532.368l.914-1.665 211.417 116.083-.914 1.665z"/><path d="M1303 1735l165.9-201.7 132.5 257.7 1.7-.9-133.8-260.2L1303 1732l-181.6-227.1 290.2-28.5-.2-1.9-293.7 28.8L1303 1735zm-712.3-539.1h.9l257.6 24.1.2-1.9-256.7-23.9 13.2-249.1-1.8-.1-13.4 250.9zm1141.2-225.7l136.2 182.1-468-149.7zm-.9 1.9l-321.7 31.5 453.7 145.1z"/><path d="M1866.3 1151.1L2095 894.6l-362.2 75.3 70.4-232.9-1.8-.5-71.3 235.9 359.7-74.8-224.9 252.3 1.4 1.2zM282.6 916.9l120.6 3.6 67.2 145.7zm5.5 2l177.2 140.9-63.4-137.4z"/><path d="M347.1 1031.5l-112.2-30.1 88-13.6-38.4-69.4 1.6-.9 38.7 70 280-43.3.5-.1 244.1 273.8 223.7-156 1.5-1 .1 195.2 362.4-11.2-33.6-244 221.7 195.3-186 50.2v.2l-365.4 11.3h-1l-.1-193.5-222.9 155.4-.7.5-244.5-274.2-278.7 43.1 22.5 40.7 119.7 32.2.6.2 22.1 229zm2.6.7l138.5 250.2-21.1-218.7zm-25.8-42.7l-79.9 12.4 101.9 27.4zm1082.1 16l32.9 239 182.4-49.2z"/><path d="M177.3 1116.2l291-52.3.2-.2 137.1-117.9-1.2-1.5-136.9 117.8-290.5 52.3.3 1.8zm1001.2 213.3l262.1-83.7-365.5-183.6 190.1-240.8 257.4-30.7-.1-.9L1864.4 973l-1.8.2-342.1-184.1-256.3 30.6-.2.3-191.8 242.9 363.5 182.5-257.8 82.3.6 1.8z"/><path d="M1840.2 756.3h.9l-489.3 53.6 377.9 160.3-208.4-179.9-1.2-1 167.3 20.6h.1l114 101.9L1928 805.7l.6.7-126.4 106 191 170.7-642-272.4-.3-.1zM1801.5 913l-69.5 58.3 256.3 108.8zm-114.3-102.3l-164.1-20.2 208.4 180 69.4-58.2z"/><path d="M1264.382 821.309l.583-1.808 466.724 150.568-.583 1.808z"/></g><use xlink:href="#m"/><path d="M1123.7 1497.1a8.1 8.1 0 1 0 3.878 4.837 8.1 8.1 0 0 0-3.878-4.837zm-271.4-284.8a8.1 8.1 0 1 0 3.878 4.837 8.1 8.1 0 0 0-3.878-4.837zm-257.6-23.5a8.1 8.1 0 1 0 3.878 4.837 8.1 8.1 0 0 0-3.878-4.837zm13.6-251.6a8.1 8.1 0 1 0 3.878 4.837 8.1 8.1 0 0 0-3.878-4.837zm-136.4 118.4a8.1 8.1 0 0 0-11 3.2 8.07 8.07 0 0 0 3.2 11 8.1 8.1 0 1 0 7.8-14.2zM1443 1237a10.09 10.09 0 0 0-13.696 4.001c-2.677 4.887-.887 11.019 3.999 13.697s11.018.889 13.697-3.997a10.24 10.24 0 0 0-4-13.7zm-175-422.9a8.1 8.1 0 1 0 3.2 11 8 8 0 0 0-3.2-11zm87.3-10.5a8.1 8.1 0 1 0 3.878 4.837 8.1 8.1 0 0 0-3.878-4.837zm516.7 341.6a8.1 8.1 0 1 0 3.878 4.837 8.1 8.1 0 0 0-3.878-4.837zM1735.8 963a8.1 8.1 0 1 0 3.2 11 8.18 8.18 0 0 0-3.2-11zM1410 995.1a8.1 8.1 0 1 0 3.878 4.837A8.1 8.1 0 0 0 1410 995.1zm63 529.4a8.1 8.1 0 1 0 3.2 11 8.18 8.18 0 0 0-3.2-11zm-56.9-54.1a8.1 8.1 0 1 0 3.878 4.837 8.1 8.1 0 0 0-3.878-4.837zm-18.4 144.9a8.1 8.1 0 1 0 3.878 4.837 8.1 8.1 0 0 0-3.878-4.837zm127.6-830.5a5.75 5.75 0 1 0 2.3 7.8 5.84 5.84 0 0 0-2.3-7.8z"/><use xlink:href="#n"/><path d="M1271.8 1051.1a5.75 5.75 0 1 0 2.765 3.424 5.75 5.75 0 0 0-2.766-3.424zm43.7-219a4.05 4.05 0 1 0 1.6 5.5 4 4 0 0 0-1.6-5.5zm25.8 9.5a4.05 4.05 0 1 0 1.939 2.419 4.05 4.05 0 0 0-1.939-2.419zm20 6.1a4.05 4.05 0 1 0 1.6 5.5 4 4 0 0 0-1.6-5.5zm25.7 8.5a4.05 4.05 0 1 0 1.6 5.5 4.17 4.17 0 0 0-1.6-5.5zm-640.5 240.4a5.75 5.75 0 1 0 2.765 3.424 5.75 5.75 0 0 0-2.766-3.424zM404.7 917.3a5.75 5.75 0 1 0-5.5 10.1 5.75 5.75 0 0 0 7.8-2.3 5.78 5.78 0 0 0-2.3-7.8zm679.5 373.1a5.75 5.75 0 1 0 2.3 7.8 5.89 5.89 0 0 0-2.3-7.8zm157.6-149.6a5.75 5.75 0 1 0 2.765 3.424 5.75 5.75 0 0 0-2.766-3.424zm-17.1 54.8a5.75 5.75 0 1 0 2.765 3.424 5.75 5.75 0 0 0-2.766-3.424zm-147.8-30.1a5.75 5.75 0 1 0 2.765 3.424 5.75 5.75 0 0 0-2.766-3.424zM958 1141.3a5.75 5.75 0 1 0 2.765 3.424A5.75 5.75 0 0 0 958 1141.3zm249.2 106.7a5.75 5.75 0 1 0 2.765 3.424 5.75 5.75 0 0 0-2.766-3.424zm91.6 39.3a5.75 5.75 0 1 0 2.3 7.8 6 6 0 0 0-2.3-7.8zm-5.3-40.9a5.75 5.75 0 1 0 2.3 7.8 5.93 5.93 0 0 0-2.3-7.8zm-13.5-36.5a5.76 5.76 0 1 0 8-1.5 5.87 5.87 0 0 0-8 1.5zm-3-48.2a5.76 5.76 0 1 0 8-1.5 5.78 5.78 0 0 0-8 1.5zm-200.3 90a5.75 5.75 0 1 0 2.765 3.424 5.75 5.75 0 0 0-2.766-3.424zm104.5 72.7a5.75 5.75 0 1 0 2.765 3.424 5.75 5.75 0 0 0-2.766-3.424zm123.9 40.9a5.75 5.75 0 1 0 2.765 3.424 5.75 5.75 0 0 0-2.766-3.424zM1790.6 780a5.75 5.75 0 1 0 2.3 7.8 5.84 5.84 0 0 0-2.3-7.8zm56.4 162.9a5.75 5.75 0 1 0 2.765 3.424A5.75 5.75 0 0 0 1847 942.9zm32.3-97.6a5.75 5.75 0 1 0 2.765 3.424 5.75 5.75 0 0 0-2.766-3.424zm-102-21.4a5.75 5.75 0 1 0 2.765 3.424 5.75 5.75 0 0 0-2.766-3.424zm-250.4 162.9a5.75 5.75 0 1 0 2.765 3.424 5.75 5.75 0 0 0-2.766-3.424zm94.3 78.5a5.75 5.75 0 1 0 2.765 3.424 5.75 5.75 0 0 0-2.766-3.424zm4.9 125.2a5.75 5.75 0 1 0 2.765 3.424 5.75 5.75 0 0 0-2.766-3.424zm-192 104.7a5.75 5.75 0 1 0 2.765 3.424 5.75 5.75 0 0 0-2.766-3.424zm-6.5 53.4a5.75 5.75 0 1 0 2.765 3.424 5.75 5.75 0 0 0-2.766-3.424zM1689.8 805a5.75 5.75 0 1 0 2.765 3.424A5.75 5.75 0 0 0 1689.8 805z"/></g><g opacity=".07"><g class="K"><path d="M696.3 1525.5h.5l39.3-476.5 340.2 421.1h0l592.6 274.3.2-.5-592.5-274.2-340.9-422.1v.7l-39.4 477.2zm538.5-376l-.2-1.1 101.7 140.9 329-775.4.5.2-329.1 775.8 150.6 208.7-.4.3-150.4-208.5-56.2 143.8zm.7 1l45 281.7 55.6-142.3z"/><path d="M819.4 1484.7l.4.2 107.1-263.5-.1-.2-190.7-173.1-.3.4 190.5 173-106.9 263.2zm963-313.9l189.1 63.5.2-.5-188.2-63.2 107.3-85-.4-.4-108 85.6z"/><path d="M1726.7 1350.8l.5.1 55.9-179.7 333.1 328.8.3-.4-333.7-329.4-.1.5-56 180.1zM706.9 872l.7.6 572.6 560.8.4-.4-572-560.1 504.9 105.2-61.9 238.4.6.2 61.9-239-.3-.1L706.9 872z"/><path d="M1213.8 978.1l249.2-12.4v-.5l-249.2 12.4v.5z"/><path d="M505 868.1v-.3l202.8 4.3h.1l337.2 163.8-.2.5-337.2-163.7-202.1-4.3 69.7 433.4 160.4-253.6.4-.6 83.7 436.8 643.1-519.2.4-.3 5.4 118.5 200.6 660.7.4 1.5-182.8-246.7v-.1l-18.8-415.3-22.5-74 .5-.2 21.9 72-5.2-115.4-643 519-.3.3-83.6-436.3-160.6 253.8-.4.6zm963.7 217.4l18.7 413.1 180.9 244.1z"/><path d="M1076 1470.1l.4.1 410.7 28.8.1-.5-410.4-28.8 158.5-320.1-.4-.3-158.9 320.8z"/><path d="M1113.9 1635.6l-38.7-166.5 207.9-37.4-166.9 204.4 20.4 87.6 352.7 117.8-.7 2-353.3-118-.6-.2-20.3-87.1-104.3 127.8-1.6-1.3zm-36.2-164.8l37.9 162.8 162.2-198.8z"/><path d="M1134.7 1725l130.6 239.7 1.9-1-130.6-239.7-1.9 1z"/><path d="M853.6 1816.8l280.8-90.8-30.7 326.3 2.1.2 31-329.5-281.4 91-34.5-327.3 293.6 150.1 1-1.9L818.3 1483l35.3 333.8zM503.8 868.3l.8.6 230.7 180.2 1.3-1.6-229.9-179.6 164.4-229.2-1.7-1.2-165.6 230.8zm1224.1 481.9l18.8 256.6-354.4-428.3zm-2 1.3l-325.4-166.4 343.6 415.3z"/><path d="M1745.7 1604.6l374-104.7-390.7-149.4 208.9-178.8-1.4-1.6-211.6 181.1 388.1 148.4-367.9 103 .6 2zM380.4 414.4L493 491.5l-24.7 179.8zm4 5.3l83 242.4 23.3-169.6z"/><path d="M372 563l-88.5-97.2 92.1 40.8 5.7-89.5 2.1.1-5.8 90.3 293 129.7.5.2 65.7 409.8 308-12 2-.1-118.8 186 351.9 210.6 116.6-252.9 92.1 321.5-207.7-65.8-.1.2-354.7-212.4-.9-.6 117.8-184.4-306.9 12h-.9l-65.9-410.4-291.7-129.1-3.3 52.5 94.4 103.8.5.5-118.4 231.6zm2 2.2l-20.6 322.9 113.1-221.2zm1.5-56.4l-83.6-37 80.3 88.3zm1020.6 676l-114.2 247.7 203.7 64.6z"/><path d="M158.7 540l309 127.8h.3l202.4-28.6-.3-2.1L468 665.6 159.5 538.1l-.8 1.9zm823.4 814.5l300.6 80.4-236.2-398.1 327.7-113.3 263.8 128 .4-1 133.2-280.2-1.9-.9-132.7 279.3-262.7-127.4-.4.1-330.6 114.3 234.9 395.8-295.6-79.1-.5 2.1z"/><path d="M1707.4 608.4l.9.6-244.6 356.5 262.1 383.4-88.8-298.7-.5-1.7 146.8 121.8.1.1 46.4 166.6 185.1-23.8.1 1-184.9 23.8 77.8 279.2-445.3-651.4-.2-.3zm121.7 729.8l-101.6 13.1 177.8 260.1zm-46.6-167.2l-144-119.4 88.8 298.7 101.5-13.1z"/><path d="M1373.437 923.07l1.621-1.335 352.661 428.421-1.621 1.335z"/></g><use xlink:href="#o"/><path d="M827.8 1480.6a9.15 9.15 0 1 0-3.7 12.4 9.07 9.07 0 0 0 3.7-12.4zm-84.9-436.9a9.15 9.15 0 1 0-3.7 12.4 9.2 9.2 0 0 0 3.7-12.4zM511.9 864a9.2 9.2 0 0 0-12.4-3.7 9.2 9.2 0 0 0-3.7 12.4 9.2 9.2 0 0 0 12.4 3.7 9.09 9.09 0 0 0 3.7-12.4zm166.2-231.3a9.15 9.15 0 1 0-3.7 12.4 9 9 0 0 0 3.7-12.4zm-202 29.4a9.2 9.2 0 0 0-12.4-3.7 9.2 9.2 0 0 0-3.7 12.4 9.2 9.2 0 0 0 12.4 3.7 9 9 0 0 0 3.7-12.4zm814.1 765.8c-3.041-5.481-9.945-7.467-15.434-4.439s-7.491 9.926-4.478 15.423a11.37 11.37 0 0 0 15.411 4.516c5.51-3.048 7.521-9.975 4.5-15.5zm91.1-509.6a9.15 9.15 0 1 0-3.7 12.4 9.09 9.09 0 0 0 3.7-12.4zm89.5 43.3a9.15 9.15 0 1 0-3.7 12.4 9 9 0 0 0 3.7-12.4zm283.9 640.8a9.15 9.15 0 1 0-3.7 12.4 9.09 9.09 0 0 0 3.7-12.4zm-18.7-256.6a9.15 9.15 0 1 0-3.7 12.4 9.2 9.2 0 0 0 3.7-12.4zm-329.7-168.4a9.15 9.15 0 1 0-3.7 12.4 9.2 9.2 0 0 0 3.7-12.4zm-262.6 542.7a9.15 9.15 0 1 0-3.7 12.4 9.2 9.2 0 0 0 3.7-12.4zm-21.2-86.3a9.15 9.15 0 1 0-3.7 12.4 9.2 9.2 0 0 0 3.7-12.4zm-105.8 126.8a9.15 9.15 0 1 0-3.7 12.4 9.2 9.2 0 0 0 3.7-12.4z"/><use xlink:href="#p"/><use xlink:href="#q"/><path d="M1240.5 1146.4a6.49 6.49 0 0 0-11.926 1.26 6.49 6.49 0 0 0 9.326 7.54 6.52 6.52 0 0 0 2.6-8.8z"/><use xlink:href="#r"/><path d="M1434.3 989.2a4.57 4.57 0 1 0-1.8 6.2 4.58 4.58 0 0 0 1.8-6.2zm15.3 18.1a4.57 4.57 0 1 0-1.8 6.2 4.5 4.5 0 0 0 1.8-6.2zm19.3 23.7a4.57 4.57 0 1 0-1.8 6.2 4.58 4.58 0 0 0 1.8-6.2zM712.6 868.9a6.49 6.49 0 1 0-2.6 8.8 6.52 6.52 0 0 0 2.6-8.8zM496.4 489.4a6.52 6.52 0 0 0-8.8-2.6 6.55 6.55 0 0 0-2.6 8.8 6.52 6.52 0 0 0 8.8 2.6 6.44 6.44 0 0 0 2.6-8.8zm419.7 770.3a6.49 6.49 0 1 0-2.6 8.8 6.52 6.52 0 0 0 2.6-8.8zm241.2-46.3a6.49 6.49 0 1 0-2.6 8.8 6.44 6.44 0 0 0 2.6-8.8zm-49.6 41.8a6.49 6.49 0 1 0-2.6 8.8 6.52 6.52 0 0 0 2.6-8.8zm-122.4-118.9a6.49 6.49 0 1 0-2.6 8.8 6.52 6.52 0 0 0 2.6-8.8zm-98.4-95.7a6.49 6.49 0 1 0-2.6 8.8 6.52 6.52 0 0 0 2.6-8.8zm172.2 253.9a6.49 6.49 0 1 0-2.6 8.8 6.52 6.52 0 0 0 2.6-8.8zm63.2 93.3a6.49 6.49 0 1 0-2.6 8.8 6.52 6.52 0 0 0 2.6-8.8zm19.9-42.2a6.49 6.49 0 1 0-2.6 8.8 6.52 6.52 0 0 0 2.6-8.8zm9.4-42.9a6.5 6.5 0 1 0 8.5 3.5 6.42 6.42 0 0 0-8.5-3.5zm26.5-47.9a6.5 6.5 0 1 0 8.5 3.5 6.51 6.51 0 0 0-8.5-3.5zm-245.5-36.6a6.49 6.49 0 1 0-2.6 8.8 6.44 6.44 0 0 0 2.6-8.8zm55.2 133.2a6.49 6.49 0 1 0-2.6 8.8 6.52 6.52 0 0 0 2.6-8.8zm93 114.6a6.49 6.49 0 1 0-2.6 8.8 6.52 6.52 0 0 0 2.6-8.8zm818.9-261.1a6.49 6.49 0 1 0-2.6 8.8 6.52 6.52 0 0 0 2.6-8.8zm-45.5 189.7a6.49 6.49 0 1 0-2.6 8.8 6.52 6.52 0 0 0 2.6-8.8zm90.2-73.3a6.49 6.49 0 1 0-2.6 8.8 6.52 6.52 0 0 0 2.6-8.8zm-84.2-82.7a6.49 6.49 0 1 0-2.6 8.8 6.36 6.36 0 0 0 2.6-8.8zm-337.6 2.2a6.49 6.49 0 1 0-2.6 8.8 6.44 6.44 0 0 0 2.6-8.8zm42 132.4a6.49 6.49 0 1 0-2.6 8.8 6.52 6.52 0 0 0 2.6-8.8zm-71.6 122.3a6.49 6.49 0 1 0-2.6 8.8 6.52 6.52 0 0 0 2.6-8.8zm-246.6-17.6a6.49 6.49 0 1 0-2.6 8.8 6.52 6.52 0 0 0 2.6-8.8zm-38.7 46.9a6.49 6.49 0 1 0-2.6 8.8 6.52 6.52 0 0 0 2.6-8.8zm580.8-357.7a6.49 6.49 0 1 0-2.6 8.8 6.44 6.44 0 0 0 2.6-8.8z"/></g></g></g></g></svg>