<svg id="Layer_3" data-name="Layer 3" xmlns="http://www.w3.org/2000/svg" viewBox="0 0 600 372.9"><defs><style>.cls-1{opacity:0.1;}.cls-2{fill:#00d193;}</style></defs><g class="cls-1"><path class="cls-2" d="M382.3,273l-27-27V125a6.7,6.7,0,1,0-2.4,0V247.1l27,27V388.8L408.1,417v17.6h2.5V416l-28.2-28.2V273Z" transform="translate(50 -62.6)"/><path class="cls-2" d="M491.8,385.6V257.5l27-27V164.7a6.7,6.7,0,1,0-2.4,0v64.8l-27,27V384.7l-13.2,13.2V397l-11.6-11.6,10.1-10.1V267.5l-11-11v-53a6.7,6.7,0,1,0-2.4,0V254l-6.7-6.7V230.5a6.7,6.7,0,0,0-1.2-13.3,6.2,6.2,0,0,0-4.4,1.7,6.87,6.87,0,0,0-4.4-1.7,6.7,6.7,0,0,0-1.2,13.3v16.8l-6.7,6.7V203.5a6.7,6.7,0,1,0-2.4,0v53l-11,11V375.2l10.1,10.1-11.6,11.6v.9l-13.2-13.2V256.5l-27-27V164.7a6.7,6.7,0,1,0-2.4,0v65.8l27,27V385.7l15.6,15.6v33.3h2.5V403.8l8.3,8.3v22.5h2.5V411l-10.7-10.7v-2.4L435.3,387l12.4,12.4-4.2,4.2v30.9H446V404.6l3.5-3.5,3.5,3.5v29.9h2.5V403.6l-4.2-4.2L463.7,387l10.9,10.9v2.4L462.9,411v23.5h2.5V412l8.3-8.3v30.8h2.5V401.2ZM472.1,268.5V374.2l-9.4,9.4-12.4-12.4,6.4-6.4v-85l-6.4-6.4,13.1-13.1V260ZM448.7,369.4l-5.7-5.7v-83l5.7-5.7,5.7,5.7v83Zm-3.2-121.1V230.5a6.49,6.49,0,0,0,3.2-1.6,7.45,7.45,0,0,0,3.2,1.6v17.8l9.2,9.2v1.7l-12.4,12.4-12.4-12.4v-1.7ZM425.2,374.2V268.5l8.6-8.6v.3l13.1,13.1-6.4,6.4v85l6.4,6.4-12.4,12.4Zm23.5,23.5-12.4-12.4,12.4-12.4,12.4,12.4Z" transform="translate(50 -62.6)"/><path class="cls-2" d="M550,118.4a6.7,6.7,0,1,0-7.9,6.6V246l-27,27V387.7l-28.2,28.2v18.6h2.5V416.9l28.2-28.2V274l27-27V125A6.77,6.77,0,0,0,550,118.4Z" transform="translate(50 -62.6)"/><path class="cls-2" d="M358.4,299.1a6.7,6.7,0,1,0-2.4,0V393l22.7,22.7v19.7h2.5V414.7L358.4,392Z" transform="translate(50 -62.6)"/><path class="cls-2" d="M325.6,171.4a6.7,6.7,0,1,0-2.4,0v88.9l17.5,17.5V435.5h2.5V276.7l-17.5-17.5V171.4Z" transform="translate(50 -62.6)"/><path class="cls-2" d="M300.5,107.8a6.7,6.7,0,1,0-2.4,0V281l28.6,28.6v75.5l-9.4,9.4v40.1h2.5V395.5l9.4-9.4V308.6L300.5,280Z" transform="translate(50 -62.6)"/><path class="cls-2" d="M279.7,153.9l-20.4-20.4V75.9a6.7,6.7,0,1,0-2.4,0v58.6l20.4,20.4V284l36.6,36.6v46.5l-19.3,19.3v48.1h2.5V387.4l19.3-19.3V319.6L279.7,283Z" transform="translate(50 -62.6)"/><path class="cls-2" d="M297.6,339.6a6.72,6.72,0,1,0-10.3-.9l-14.7,14.7v82.1h2.5v-81l14-14A7,7,0,0,0,297.6,339.6Z" transform="translate(50 -62.6)"/><path class="cls-2" d="M94.4,385.6V257.5l27-27V164.7a6.7,6.7,0,1,0-2.4,0v64.8l-27,27V384.7L78.8,397.9V397L67.2,385.4l10.1-10.1V267.5l-11-11v-53a6.7,6.7,0,1,0-2.4,0V254l-6.7-6.7V230.5A6.7,6.7,0,0,0,56,217.2a6.2,6.2,0,0,0-4.4,1.7,6.87,6.87,0,0,0-4.4-1.7A6.7,6.7,0,0,0,46,230.5v16.8L39.3,254V203.5a6.7,6.7,0,1,0-2.4,0v53l-11,11V375.2L36,385.3,24.4,396.9v.9L11.2,384.6V256.5l-27-27V164.7a6.76,6.76,0,0,0,5.5-6.6,6.7,6.7,0,0,0-6.7-6.7,6.7,6.7,0,0,0-6.7,6.7,6.76,6.76,0,0,0,5.5,6.6v65.8l27,27V385.7l15.6,15.6v33.3h2.5V403.8l8.3,8.3v22.5h2.5V411L27,400.3v-2.4L37.2,387l12.4,12.4-4.2,4.2v30.9h2.5V404.6l3.5-3.5,3.5,3.5v29.9h2.5V403.6l-4.2-4.2L65.4,387l10.9,10.9v2.4L65.6,411v23.5H68V412l8.3-8.3v30.8h2.5V401.2ZM74.8,268.5V374.2l-9.4,9.4L53,371.2l6.4-6.4v-85L53,273.4l13.1-13.1V260ZM51.3,369.4l-5.7-5.7v-83l5.7-5.7,5.7,5.7v83ZM48.1,248.3V230.5a6.49,6.49,0,0,0,3.2-1.6,7.45,7.45,0,0,0,3.2,1.6v17.8l9.2,9.2v1.7L51.3,271.6,38.9,259.2v-1.7ZM27.9,374.2V268.5l8.6-8.6v.3l13.1,13.1-6.4,6.4v85l6.4,6.4L37.2,383.5Zm23.4,23.5L39,385.3l12.4-12.4,12.4,12.4Z" transform="translate(50 -62.6)"/><path class="cls-2" d="M145.9,111.6a6.7,6.7,0,0,0-1.2,13.3V246l-27,27V387.7L89.5,415.9v18.6H92V416.9l28.2-28.2V274l27-27V125a6.76,6.76,0,0,0,5.5-6.6A6.94,6.94,0,0,0,145.9,111.6Z" transform="translate(50 -62.6)"/><path class="cls-2" d="M-15.1,273l-27-27V125a6.76,6.76,0,0,0,5.5-6.6,6.7,6.7,0,0,0-6.7-6.7,6.7,6.7,0,0,0-6.7,6.7,6.76,6.76,0,0,0,5.5,6.6V247.1l27,27V388.8L10.7,417v17.6h2.5V416L-15,387.8V273Z" transform="translate(50 -62.6)"/><path class="cls-2" d="M142.8,285.8a6.7,6.7,0,0,0-1.2,13.3V392l-22.7,22.7v20.7h2.5V415.7L144.1,393V299.1a6.7,6.7,0,0,0-1.3-13.3Z" transform="translate(50 -62.6)"/><path class="cls-2" d="M176.9,171.4a6.7,6.7,0,1,0-2.4,0v87.9L157,276.8V435.5h2.5V277.7L177,260.2V171.4Z" transform="translate(50 -62.6)"/><path class="cls-2" d="M173.3,309.6,201.9,281V107.8a6.7,6.7,0,1,0-2.4,0V280l-28.6,28.6v77.5l9.4,9.4v39.1h2.5V394.5l-9.4-9.4V309.6Z" transform="translate(50 -62.6)"/><path class="cls-2" d="M241.9,62.6a6.7,6.7,0,0,0-1.2,13.3v57.6l-20.4,20.4V283l-36.6,36.6v48.5L203,387.4v47.1h2.5V386.4l-19.3-19.3V320.6L222.8,284V154.9l20.4-20.4V75.9a6.76,6.76,0,0,0,5.5-6.6A6.85,6.85,0,0,0,241.9,62.6Z" transform="translate(50 -62.6)"/><path class="cls-2" d="M211.9,330a6.72,6.72,0,1,0-.9,10.3l14,14v81h2.5V353.2l-14.7-14.7A6.72,6.72,0,0,0,211.9,330Z" transform="translate(50 -62.6)"/></g></svg>